<?xml version="1.0" encoding="utf-8"?>
<!-- Generator: Adobe Illustrator 16.0.0, SVG Export Plug-In . SVG Version: 6.00 Build 0)  -->
<!DOCTYPE svg PUBLIC "-//W3C//DTD SVG 1.1//EN" "http://www.w3.org/Graphics/SVG/1.1/DTD/svg11.dtd">
<svg version="1.1" id="Layer_1" xmlns="http://www.w3.org/2000/svg" xmlns:xlink="http://www.w3.org/1999/xlink" x="0px" y="0px"
	 width="200.763px" height="136px" viewBox="0 0 200.763 136" enable-background="new 0 0 200.763 136" xml:space="preserve">
<path fill="#D2D6D6" d="M197.524,136H3.238C1.45,136,0,134.55,0,132.762V3.238C0,1.45,1.45,0,3.238,0h194.286
	c1.788,0,3.238,1.45,3.238,3.238v129.524C200.763,134.55,199.312,136,197.524,136z M6.477,129.523h187.809V6.477H6.477V129.523z"/>
<path fill="#D2D6D6" d="M100.381,136c-1.788,0-3.238-1.45-3.238-3.238V3.238c0-1.788,1.45-3.238,3.238-3.238s3.238,1.45,3.238,3.238
	v129.524C103.619,134.55,102.169,136,100.381,136z"/>
<path fill="#D2D6D6" d="M197.524,71.238h-97.143c-1.788,0-3.238-1.45-3.238-3.238s1.45-3.238,3.238-3.238h97.143
	c1.788,0,3.238,1.45,3.238,3.238S199.312,71.238,197.524,71.238z"/>
<path fill="#D2D6D6" d="M148.953,136c-1.788,0-3.238-1.45-3.238-3.238V68c0-1.788,1.45-3.238,3.238-3.238s3.238,1.45,3.238,3.238
	v64.762C152.191,134.55,150.741,136,148.953,136z"/>
<path fill="#D2D6D6" d="M197.524,103.619h-48.572c-1.788,0-3.238-1.45-3.238-3.237c0-1.788,1.45-3.238,3.238-3.238h48.572
	c1.788,0,3.238,1.45,3.238,3.238C200.763,102.169,199.312,103.619,197.524,103.619z"/>
<path fill="#D2D6D6" d="M173.238,136c-1.788,0-3.238-1.45-3.238-3.238v-32.381c0-1.788,1.45-3.238,3.238-3.238
	c1.789,0,3.239,1.45,3.239,3.238v32.381C176.477,134.55,175.027,136,173.238,136z"/>
</svg>
