<?xml version="1.0" encoding="utf-8"?>
<!-- Generator: Adobe Illustrator 16.0.0, SVG Export Plug-In . SVG Version: 6.00 Build 0)  -->
<!DOCTYPE svg PUBLIC "-//W3C//DTD SVG 1.1//EN" "http://www.w3.org/Graphics/SVG/1.1/DTD/svg11.dtd">
<svg version="1.1" id="Layer_1" xmlns="http://www.w3.org/2000/svg" xmlns:xlink="http://www.w3.org/1999/xlink" x="0px" y="0px"
	 width="200.763px" height="136px" viewBox="0 0 200.763 136" enable-background="new 0 0 200.763 136" xml:space="preserve">
<path fill="#D2D6D6" d="M197.524,136H3.238C1.45,136,0,134.551,0,132.762V3.238C0,1.449,1.45,0,3.238,0h194.286
	c1.788,0,3.238,1.449,3.238,3.238v129.523C200.762,134.551,199.312,136,197.524,136z M6.477,129.523h187.81V6.477H6.477V129.523z"/>
<path fill="#D2D6D6" d="M197.524,136h-71.238c-1.788,0-3.238-1.449-3.238-3.238V35.619c0-1.789,1.45-3.238,3.238-3.238h71.238
	c1.788,0,3.238,1.449,3.238,3.238v97.143C200.762,134.551,199.312,136,197.524,136z M129.525,129.523h64.761V38.857h-64.761V129.523
	z"/>
<path fill="#D2D6D6" d="M197.524,135.997h-33.681c-1.789,0-3.238-1.449-3.238-3.237V70.583c0-1.789,1.45-3.238,3.238-3.238h33.681
	c1.788,0,3.238,1.449,3.238,3.238v62.177C200.762,134.548,199.312,135.997,197.524,135.997z M167.082,129.521h27.205v-55.7h-27.205
	V129.521z"/>
<path fill="#D2D6D6" d="M197.524,19.438H3.238C1.45,19.438,0,17.989,0,16.2c0-1.788,1.45-3.237,3.238-3.237h194.286
	c1.788,0,3.238,1.449,3.238,3.237C200.762,17.989,199.312,19.438,197.524,19.438z"/>
<path fill="#D2D6D6" d="M197.524,51.819h-71.238c-1.788,0-3.238-1.449-3.238-3.237c0-1.789,1.45-3.238,3.238-3.238h71.238
	c1.788,0,3.238,1.449,3.238,3.238C200.762,50.37,199.312,51.819,197.524,51.819z"/>
<path fill="#D2D6D6" d="M197.524,86.783h-33.681c-1.789,0-3.238-1.449-3.238-3.238c0-1.788,1.45-3.237,3.238-3.237h33.681
	c1.788,0,3.238,1.449,3.238,3.237C200.762,85.334,199.312,86.783,197.524,86.783z"/>
</svg>
