<?xml version="1.0" encoding="utf-8"?>
<!-- Generator: Adobe Illustrator 16.0.0, SVG Export Plug-In . SVG Version: 6.00 Build 0)  -->
<!DOCTYPE svg PUBLIC "-//W3C//DTD SVG 1.1//EN" "http://www.w3.org/Graphics/SVG/1.1/DTD/svg11.dtd">
<svg version="1.1" id="Layer_1" xmlns="http://www.w3.org/2000/svg" xmlns:xlink="http://www.w3.org/1999/xlink" x="0px" y="0px"
	 width="14.951px" height="23px" viewBox="11.781 18.125 14.951 23" enable-background="new 11.781 18.125 14.951 23"
	 xml:space="preserve">
<g>
	<path fill="#FFFFFF" d="M24.43,26.021v-3.795c0-2.38-1.824-4.102-4.202-4.102h-1.727c-2.374,0-4.418,1.722-4.418,4.102v3.796
		c-1.152,0.265-2.302,1.425-2.302,2.815v9.201c0,1.586,1.397,3.086,2.985,3.086h9.201c1.586,0,2.765-1.5,2.765-3.086v-9.201
		C26.731,27.447,25.583,26.286,24.43,26.021z M18.501,21h1.727c0.794,0,1.327,0.432,1.327,1.227v3.947h-4.597v-3.947
		C16.958,21.432,17.711,21,18.501,21z M19.365,36.527c-1.589,0-2.875-1.285-2.875-2.875c0-1.586,1.286-2.875,2.875-2.875
		c1.59,0,2.875,1.289,2.875,2.875C22.24,35.242,20.955,36.527,19.365,36.527z"/>
</g>
</svg>
