<?xml version="1.0" encoding="utf-8"?>
<!-- Generator: Adobe Illustrator 16.0.0, SVG Export Plug-In . SVG Version: 6.00 Build 0)  -->
<!DOCTYPE svg PUBLIC "-//W3C//DTD SVG 1.1//EN" "http://www.w3.org/Graphics/SVG/1.1/DTD/svg11.dtd">
<svg version="1.1" id="Layer_1" xmlns="http://www.w3.org/2000/svg" xmlns:xlink="http://www.w3.org/1999/xlink" x="0px" y="0px"
	 width="108.75px" height="20px" viewBox="0 0 108.75 20" enable-background="new 0 0 108.75 20" xml:space="preserve">
<g>
	<path fill="#FFFFFF" d="M8.008,19.993H0V0h7.424c3.961,0,5.94,1.733,5.94,5.197c0,1.98-0.732,3.342-2.199,4.084v0.053
		c2.721,0.354,4.082,2.052,4.082,5.093c0,1.007-0.203,1.881-0.609,2.624c-0.406,0.743-0.959,1.323-1.657,1.736
		c-0.698,0.415-1.457,0.722-2.281,0.915C9.878,19.896,8.98,19.993,8.008,19.993z M5.198,3.978V7.85h0.583
		c0.847,0,1.529-0.133,2.042-0.398c0.512-0.265,0.768-0.779,0.768-1.539c0-0.441-0.083-0.798-0.251-1.074
		C8.172,4.565,7.919,4.372,7.585,4.256C7.249,4.141,6.938,4.067,6.656,4.031S6.012,3.978,5.57,3.978H5.198z M5.198,11.721v4.297
		h0.663c0.424,0,0.711,0,0.861,0s0.438-0.017,0.863-0.055c0.423-0.034,0.737-0.097,0.941-0.185c0.203-0.088,0.442-0.208,0.716-0.359
		c0.273-0.15,0.468-0.354,0.583-0.609c0.115-0.256,0.171-0.56,0.171-0.913c0-0.267-0.027-0.506-0.08-0.717
		c-0.051-0.212-0.145-0.389-0.278-0.531c-0.131-0.139-0.252-0.269-0.358-0.383c-0.105-0.115-0.278-0.205-0.516-0.267
		c-0.239-0.061-0.42-0.115-0.544-0.159c-0.125-0.046-0.342-0.076-0.649-0.093c-0.31-0.018-0.514-0.026-0.611-0.026s-0.314,0-0.649,0
		s-0.53,0-0.583,0H5.198z"/>
	<path fill="#FFFFFF" d="M29.621,11.802l6.284,8.191h-6.47l-4.906-7.688h-0.053v7.688h-5.197V0h7.77
		c2.086,0,3.766,0.512,5.039,1.537c1.271,1.026,1.909,2.564,1.909,4.615c0,1.432-0.384,2.669-1.153,3.713
		C32.073,10.907,30.999,11.554,29.621,11.802z M24.476,3.978v4.985h0.505c2.403,0,3.605-0.83,3.605-2.493
		c0-1.662-1.202-2.492-3.605-2.492H24.476z"/>
	<path fill="#FFFFFF" d="M41.66,0l4.826,12.146L51.338,0h5.649l-8.54,19.993h-4.03L36.011,0H41.66z"/>
	<path fill="#FFFFFF" d="M59.61,19.993V0h7.958c2.244,0,4.016,0.543,5.316,1.63c1.298,1.087,1.948,2.736,1.948,4.946
		c0,4.526-2.36,6.789-7.08,6.789h-2.942v6.628H59.61z M64.811,4.188v4.986h0.874c0.495,0,0.872-0.004,1.127-0.012
		c0.256-0.01,0.585-0.058,0.98-0.147c0.396-0.088,0.695-0.212,0.89-0.37c0.193-0.158,0.365-0.398,0.516-0.716
		c0.151-0.319,0.227-0.717,0.227-1.194c0-0.496-0.072-0.906-0.212-1.233c-0.144-0.327-0.311-0.579-0.504-0.756
		c-0.196-0.176-0.483-0.305-0.861-0.385c-0.383-0.079-0.708-0.127-0.981-0.145c-0.275-0.018-0.668-0.028-1.181-0.028H64.811z"/>
	<path fill="#FFFFFF" d="M78.465,19.993V0h7.957c2.243,0,4.017,0.543,5.315,1.63c1.299,1.087,1.949,2.736,1.949,4.946
		c0,4.526-2.357,6.789-7.079,6.789h-2.943v6.628H78.465z M83.664,4.188v4.986h0.874c0.495,0,0.872-0.004,1.126-0.012
		c0.259-0.01,0.586-0.058,0.984-0.147c0.396-0.088,0.692-0.212,0.887-0.37c0.193-0.158,0.365-0.398,0.518-0.716
		c0.149-0.319,0.225-0.717,0.225-1.194c0-0.496-0.071-0.906-0.212-1.233c-0.142-0.327-0.309-0.579-0.504-0.756
		C87.366,4.57,87.078,4.441,86.7,4.361c-0.381-0.079-0.709-0.127-0.982-0.145s-0.667-0.028-1.18-0.028H83.664z"/>
	<path fill="#FFFFFF" d="M102.517,0v15.592h6.233v4.401H97.318V0H102.517z"/>
</g>
</svg>
