<?xml version="1.0" encoding="utf-8"?>
<!-- Generator: Adobe Illustrator 16.0.0, SVG Export Plug-In . SVG Version: 6.00 Build 0)  -->
<!DOCTYPE svg PUBLIC "-//W3C//DTD SVG 1.1//EN" "http://www.w3.org/Graphics/SVG/1.1/DTD/svg11.dtd">
<svg version="1.1" id="Layer_1" xmlns="http://www.w3.org/2000/svg" xmlns:xlink="http://www.w3.org/1999/xlink" x="0px" y="0px"
	 width="200.763px" height="136px" viewBox="0 0 200.763 136" enable-background="new 0 0 200.763 136" xml:space="preserve">
<path fill="#D2D6D6" d="M197.524,136H3.238C1.449,136,0,134.55,0,132.762V3.238C0,1.45,1.449,0,3.238,0h194.286
	c1.789,0,3.238,1.45,3.238,3.238v129.523C200.762,134.55,199.313,136,197.524,136z M6.477,129.524h187.809V6.476H6.477V129.524z"/>
<g>
	<path fill="#D2D6D6" d="M72.657,109.879H39.505c-1.789,0-3.238-1.45-3.238-3.238V29.358c0-1.788,1.449-3.238,3.238-3.238h33.152
		c1.789,0,3.238,1.45,3.238,3.238c0,1.789-1.449,3.238-3.238,3.238H42.743v70.807h29.914c1.789,0,3.238,1.45,3.238,3.238
		S74.446,109.879,72.657,109.879z"/>
	<path fill="#D2D6D6" d="M161.256,109.879h-33.15c-1.789,0-3.238-1.45-3.238-3.238s1.449-3.238,3.238-3.238h29.912V32.597h-29.912
		c-1.789,0-3.238-1.45-3.238-3.238c0-1.788,1.449-3.238,3.238-3.238h33.15c1.789,0,3.238,1.45,3.238,3.238v77.283
		C164.495,108.43,163.045,109.879,161.256,109.879z"/>
</g>
<path fill="#D2D6D6" d="M100.381,92.448c-13.48,0-24.447-10.967-24.447-24.448s10.967-24.448,24.447-24.448
	S124.829,54.52,124.829,68S113.862,92.448,100.381,92.448z M100.381,50.028c-9.91,0-17.973,8.062-17.973,17.972
	s8.062,17.972,17.973,17.972S118.352,77.909,118.352,68S110.292,50.028,100.381,50.028z"/>
<path fill="#D2D6D6" d="M121.59,71.238H79.17c-1.787,0-3.236-1.45-3.236-3.238s1.449-3.238,3.236-3.238h42.42
	c1.789,0,3.238,1.45,3.238,3.238S123.379,71.238,121.59,71.238z"/>
</svg>
