<?xml version="1.0" encoding="utf-8"?>
<!-- Generator: Adobe Illustrator 16.0.0, SVG Export Plug-In . SVG Version: 6.00 Build 0)  -->
<!DOCTYPE svg PUBLIC "-//W3C//DTD SVG 1.1//EN" "http://www.w3.org/Graphics/SVG/1.1/DTD/svg11.dtd">
<svg version="1.1" id="Layer_2" xmlns="http://www.w3.org/2000/svg" xmlns:xlink="http://www.w3.org/1999/xlink" x="0px" y="0px"
	 width="76.066px" height="76.66px" viewBox="0 0 76.066 76.66" enable-background="new 0 0 76.066 76.66" xml:space="preserve">
<g>
	<path fill="#484748" d="M75.785,51.569c-0.135-0.223-0.179-0.502-0.297-0.851c-0.274-0.186-0.385-0.366-0.479-0.82
		c-0.024-0.122-0.096-0.235-0.164-0.34c-0.14-0.224-0.286-0.446-0.443-0.658c-0.355-0.481-0.72-0.961-1.08-1.441
		c-0.031,0.019-0.061,0.04-0.091,0.058c0.024,0.094,0.047,0.183,0.072,0.275c-0.242-0.179-0.429-0.389-0.613-0.602
		c-0.692-0.797-1.348-1.63-2.085-2.384c-0.668-0.682-1.423-1.278-2.143-1.909c-0.676-0.592,0.54,0.697-0.15,0.122
		c-0.36-0.301-0.733-0.604-1.148-0.811c-0.188-0.095-0.392-0.097-0.482-0.337c-0.072-0.19-0.182-0.369-0.275-0.554
		c0.02-0.027,0.041-0.057,0.061-0.083c0.201,0.054,0.495,0.043,0.584,0.174c0.248,0.362,0.603,0.382,0.956,0.41
		c1.003,0.079,1.947-0.112,2.777-0.721c0.068-0.049,0.146-0.112,0.168-0.184c0.101-0.313,0.233-0.592,0.528-0.769
		c0.091-0.054,0.173-0.129,0.24-0.212c0.044-0.054,0.095-0.164,0.07-0.201c-0.039-0.062-0.136-0.107-0.213-0.114
		c-0.34-0.031-0.685-0.041-1.025-0.068c-0.46-0.035-0.917-0.084-1.371-0.122c0.443-0.096,0.884-0.179,1.321-0.282
		c0.118-0.026,0.25-0.084,0.332-0.171c0.326-0.346,0.642-0.698,0.945-1.063c0.077-0.093,0.161-0.266,0.123-0.343
		c-0.048-0.093-0.214-0.146-0.339-0.178c-0.159-0.042-0.33-0.034-0.49-0.074c-0.574-0.132-1.143-0.271-1.713-0.415
		c-0.085-0.021-0.164-0.078-0.292-0.143c0.121-0.071,0.185-0.109,0.251-0.146c0.292-0.162,0.601-0.299,0.87-0.492
		c0.175-0.124,0.308-0.321,0.422-0.506c0.035-0.055-0.042-0.264-0.099-0.277c-0.654-0.165-1.204-0.647-1.915-0.638
		c-0.028,0-0.056-0.036-0.108-0.068c0.702-0.412,1.37-0.824,2.056-1.201c0.822-0.451,1.579-0.984,2.215-1.677
		c0.075-0.08,0.085-0.221,0.126-0.332c-0.134-0.042-0.269-0.119-0.401-0.115c-0.117,0.001-0.229,0.104-0.348,0.146
		c-0.237,0.09-0.473,0.2-0.718,0.245c-1.28,0.244-2.573,0.43-3.845,0.711c-1.952,0.431-3.901,0.871-5.88,1.164
		c-0.165,0.025-0.334,0.029-0.494,0.072c-0.624,0.171-1.255,0.322-1.861,0.543c-0.458,0.166-0.89,0.199-1.37,0.131
		c-0.766-0.109-1.542-0.159-2.314-0.195c-0.84-0.044-1.052-0.044-1.893-0.06c-0.39-0.007-0.783,0.02-1.17-0.019
		c-0.426-0.046-0.844-0.153-1.267-0.222c-0.28-0.049-0.571-0.046-0.841-0.121c-0.565-0.164-1.122-0.359-1.675-0.559
		c-0.139-0.05-0.257-0.164-0.377-0.259c-0.158-0.124-0.29-0.322-0.466-0.374c-0.477-0.143-0.971-0.227-1.459-0.325
		c-0.489-0.099-0.981-0.181-1.47-0.286c-0.217-0.047-0.427-0.13-0.64-0.197c-0.346-0.104-0.692-0.208-1.089-0.328
		c0.099-0.092,0.124-0.131,0.157-0.142c0.68-0.247,1.186-0.749,1.746-1.174c0.18-0.138,0.384-0.232,0.381-0.508
		c-0.001-0.048,0.108-0.1,0.17-0.144c0.338-0.251,0.687-0.488,1.012-0.752c0.141-0.117,0.237-0.284,0.354-0.431
		c-0.026-0.025-0.053-0.052-0.078-0.078c-0.091,0.057-0.181,0.115-0.273,0.174c-0.294,0.191-0.581,0.397-0.889,0.565
		c-0.082,0.045-0.228-0.025-0.343-0.041c-0.43,0.111-0.871,0.301-1.312,0.488c-0.131,0.056-0.275,0.151-0.35-0.084
		c-0.008-0.026-0.137-0.027-0.207-0.02c-0.418,0.049-0.795,0.418-1.253,0.152c-0.014-0.008-0.038,0-0.058,0.006
		c-0.62,0.12-1.242,0.227-1.879,0.204c-0.299-0.009-0.6,0.041-0.899,0.038c-0.22,0-0.441-0.075-0.657-0.059
		c-0.566,0.049-1.128,0.171-1.694,0.185c-0.819,0.023-1.643,0.013-2.459-0.058c-0.55-0.046-1.093-0.204-1.633-0.337
		c-0.608-0.146-1.205-0.344-1.817-0.471c-0.671-0.142-1.354-0.229-2.032-0.333c-0.221-0.035-0.445-0.049-0.74-0.082
		c0.136,0.176,0.213,0.275,0.29,0.374c-0.022,0.027-0.043,0.055-0.065,0.079c-0.191-0.122-0.38-0.244-0.571-0.363
		c-0.18-0.116-0.356-0.22-0.56-0.035c-0.036,0.035-0.13,0.038-0.181,0.015c-0.167-0.076-0.329-0.171-0.492-0.26
		c-0.479-0.263-0.311-0.758-0.79-1.021c-0.042-0.021-0.097-0.02-0.141-0.037c-0.174-0.065-0.362-0.112-0.518-0.207
		c-0.199-0.124-0.356-0.309-0.557-0.432c-0.391-0.238-0.776-0.538-1.207-0.651c-0.385-0.102-0.567-0.354-0.793-0.598
		c-0.228-0.246-0.416-0.536-0.663-0.762c-0.297-0.271-0.585-0.531-0.765-0.912c-0.245-0.521-0.54-1.021-0.826-1.521
		c-0.29-0.51-1.304-0.745-1.411-1.346c-0.027-0.151-0.116-0.292-0.181-0.435c-0.015-0.036-0.028-0.063-0.044-0.097
		c0.02-0.263,0.112-0.128,0.112-0.128c-0.134-0.107,0.673,0.627,0.256-0.317c-0.183-0.417-0.125-0.482-0.178-0.562
		c-0.051-0.078-0.065-0.253-0.196-0.421c-0.131-0.165-0.051-0.155-0.183-0.497c-0.13-0.341-0.596-1.277-0.596-1.277l-1.15-1.401
		c-0.064-0.173-0.13-0.346-0.194-0.52c-0.028-0.076-0.057-0.152-0.086-0.226l0.047-0.025c-0.32-0.782-0.746-1.508-1.166-2.238
		c-0.245-0.426-0.656-0.612-0.927-1.021c-0.153-0.229-0.316-0.451-0.485-0.67l0.305-0.072c-0.105-0.17-0.55-0.848,0.425-0.021
		c1.461,1.24,1.272,0.509,2.225,0.509c0.276,0,0.508-0.402,0.635-0.593c0.127-0.191,0.361-0.298,0.509-0.425
		c0.148-0.126,0.317-0.571,0.551-0.782c0.233-0.214,0.084-0.658,0.254-0.976c0.17-0.318-0.127-0.297-0.127-0.297
		s-0.063-0.275-0.148-0.381c-0.084-0.106-0.338-0.148-0.635-0.192c-0.297-0.041-0.361-0.041-0.403-0.273
		c-0.042-0.235,0.424-0.615,0.615-0.806c0.191-0.191,0.848-0.615,1.06-0.933c0.212-0.318-0.021-0.487-0.106-0.636
		s-1.482,0.274-1.695,0.383c-0.109,0.054-0.403,0.091-0.8,0.111c-0.124,0.006-0.259,0.013-0.4,0.016
		c-0.201,0.004,0.089-0.343-0.134-0.346c-0.085-0.001-0.548,0.131-0.635,0.13c-0.996-0.022-0.445-0.234-0.72-0.32
		c-0.185-0.055,0.094-0.377,0.148-0.652c0.021-0.104-0.192-0.263-0.349-0.283c0.145-0.07,0.367-0.2,0.44-0.303
		c0.047-0.068-0.256-0.213-0.165-0.239c0.459-0.14,0.425-0.547,0.521-0.709c0.141-0.237,0.013-0.135,0.051-0.267
		c0.031-0.114,0.16-0.212,0.216-0.313c0.135-0.235,0.145-0.165,0.364-0.321c0.222-0.158-0.413-0.517-0.992-0.433
		c-0.201,0.029-0.131,0.154-0.351,0.231c-0.361,0.129-0.558,0.445-0.995,0.381c-0.175-0.027-0.398,0.409-0.676,0.559
		c-0.171,0.093-0.359,0.185-0.384,0.201C12.9,2.939,12.79,3.145,12.589,3.225c-0.097,0.038-0.191,0.077-0.253,0.104
		c-0.191,0.085-0.318,0.021-0.403-0.189c-0.038-0.098,0.073-0.275,0.091-0.527c0.004-0.067-0.007-0.314,0-0.385
		c0.023-0.25-0.035-0.37-0.007-0.551c0.064-0.424,0-0.594,0-0.869c0-0.276-0.106-0.276-0.508-0.678
		c-0.402-0.404-0.318,0.253-0.36,0.443s-0.318,0.51-0.445,0.765c-0.126,0.254-0.39,0.302-0.72,0.654
		c-0.28,0.303-0.535,0.34-0.714,0.736C9.212,2.851,9.215,3.154,9.131,3.271c-0.089,0.12-0.089,0.26-0.14,0.313
		C8.838,3.74,8.822,3.646,8.711,3.646c-0.148,0-0.063-0.147-0.099-0.254c-0.026-0.08,0.15-0.069,0.216-0.462
		c0.022-0.131,0.007-0.438,0-0.636C8.821,2.05,8.84,1.892,8.88,1.784C8.958,1.572,9.117,1.54,9.308,1.394
		c0.567-0.435-0.624-0.289-0.624-0.289S8.245,1.19,7.793,1.538C7.359,1.873,7.011,2.25,6.87,2.44
		c-0.143,0.19-0.173,0.887-0.299,1.015C6.443,3.584,6.401,3.584,6.337,3.138c-0.063-0.445-0.636-0.849-0.763-0.7
		c-0.126,0.147,0,0.89,0,0.89S5.151,3.9,5.044,4.006C4.938,4.112,4.833,4.431,4.536,4.431c-0.297,0-0.424,0.19-0.55,0.508
		C3.858,5.256,3.858,5.425,3.858,5.425S3.709,5.574,3.54,5.638C3.37,5.701,3.35,5.723,3.095,5.849
		C2.84,5.978,3.138,5.998,3.01,6.336c-0.127,0.34-0.138,0.107-0.138,0.107S2.757,6.57,2.586,6.592
		c-0.169,0.02-0.063,0.424-0.063,0.509c0,0.084-0.127,0.296-0.211,0.445C2.228,7.693,1.736,8.51,1.631,9.695
		c-0.105,1.189,1.409,1.76,1.409,1.76l-0.325,0.052l-0.243,0.037L2.23,11.755l-0.073,0.064l-0.702,0.609l-0.425,0.529
		c0,0,0.021,0.401,0.001,0.572c-0.021,0.17,0.169,0.572,0.211,0.423c0.042-0.147,0.148-0.084,0.255-0.207
		c0.083-0.099,1.149-0.163,1.224-0.201c0.184-0.008,0.184-0.008,0.334,0.018c0.102-0.007,0.284,0.086,0.433,0.077
		c0.28-0.015,0.763,0.459,0.508,0.347c-0.958-0.425-1.801,0.081-1.834,0.144c-0.082,0.154,0.264,0.225,0.486,0.287
		c0.267,0.074,0.501,0.324,0.782,0.377c0.313,0.061,0.204,0.267,0.347,0.376c-0.052,0.231,0.107,0.331,0.074,0.381
		c-0.271,0.412-0.938,0.663-0.943,1.84c0,0.051,0.081,0.116,0.068,0.163c-0.022,0.094-0.15,0.168-0.168,0.265
		c-0.057,0.322,0.05,0.642,0.078,1.022c0.01,0.14,0.154,0.453,0.284,0.563c-0.111,0.188,0.209,0.235,0.274,0.386
		c0.063,0.151,0.261,0.121,0.343,0.262c0.025,0.042,0.096,0.006,0.122,0.046c0.017,0.028-0.01,0.133,0.007,0.157
		c0.128,0.192,0.471,0.079,0.567,0.167c0.033,0.028,0.02,0.129,0.057,0.154c0.037,0.021,0.236,0.099,0.277,0.117
		c0.334,0.151,0.314,0.133,0.463,0.033c0.074-0.05,0.132-0.15,0.104-0.242c0.129-0.089,0.222,0.082,0.252,0.067
		c0.276-0.12,0.522-0.312,0.616-0.468c0.376-0.607,0.694-0.829,0.688-0.637c-0.01,0.245,0.292-0.321,0.227-0.063
		c-0.038,0.146-0.005,0.191-0.143,0.253c-0.194,0.088-0.273,0.242-0.315,0.44c-0.017,0.084-0.064,0.18-0.129,0.232
		c-0.199,0.16-0.411,0.304-0.639,0.468l0.118-0.062l-1.994,1.082c0.031,0.504-0.3,0.75-0.588,1.026
		c-0.071,0.067-0.131,0.147-0.21,0.207c-0.437,0.328-0.276,0.932-0.6,1.311c0.156,0.267-0.103,0.325-0.217,0.472
		c-0.212,0.269-0.649,0.421-0.507,0.897c0.011,0.04-0.066,0.117-0.115,0.161c-0.203,0.185-0.426,0.349-0.612,0.548
		c-0.011,0.012-0.021,0.022-0.032,0.034c-0.045-0.067-0.091-0.138-0.137-0.205c-0.037,0.025-0.073,0.049-0.111,0.074
		c0.05,0.072,0.098,0.147,0.147,0.223c0.013-0.011,0.026-0.019,0.039-0.027c-0.136,0.143-0.28,0.309-0.265,0.442
		c0.029,0.262-0.111,0.363-0.213,0.534c-0.158,0.265-0.417,0.589-0.362,0.826c0.065,0.286,0.021,0.486-0.068,0.727
		c-0.089,0.237-0.167,0.484-0.213,0.733c-0.021,0.117,0.039,0.252,0.065,0.39c0.151-0.087,0.237-0.139,0.389-0.227
		c-0.085,0.378-0.159,0.673-0.21,0.967c-0.014,0.075,0.044,0.229,0.078,0.231c0.312,0.025,0.258,0.273,0.298,0.46
		c0.026,0.122,0.04,0.246,0.06,0.37c0.028,0,0.054-0.001,0.08-0.001c0.056-0.075,0.114-0.151,0.198-0.261
		c0.042,0.611,0.06,1.178,0.493,1.65c0.027-0.181,0.052-0.355,0.09-0.614c0.33,0.877,0.031,1.789,0.447,2.564
		c0.029-0.003,0.058-0.005,0.088-0.008c0-0.382,0-0.762,0-1.141c0.076,0.175,0.076,0.351,0.105,0.521
		c0.155,0.838,0.32,1.676,0.281,2.538c-0.006,0.136,0.081,0.277,0.125,0.417c0.023-0.005,0.048-0.01,0.071-0.015
		c0.027-0.057,0.055-0.115,0.095-0.192c0.104,0.242,0.191,0.45,0.283,0.658c0.081,0.18,0.182,0.307,0.429,0.255
		c0.079-0.015,0.251,0.111,0.279,0.202c0.179,0.6,0.349,1.204,0.482,1.813c0.096,0.44,0.108,0.897,0.204,1.336
		c0.03,0.14,0.198,0.328,0.327,0.351c0.194,0.032,0.244,0.137,0.336,0.266c0.136,0.193,0.294,0.46,0.483,0.499
		c0.297,0.061,0.369,0.219,0.458,0.45c0.127,0.326,0.297,0.635,0.444,0.955c0.1,0.217,0.224,0.427,0.278,0.656
		c0.097,0.409,0.549,0.804,0.942,0.785c0.044-0.115,0.086-0.224,0.149-0.388c0.206,0.225,0.374,0.402,0.531,0.585
		c0.453,0.525,1.121,0.823,1.495,1.431c0.115,0.187,0.256,0.356,0.362,0.551c0.084,0.151,0.102,0.351,0.208,0.482
		c0.101,0.125,0.283,0.274,0.417,0.266c0.327-0.022,0.506,0.151,0.696,0.354c0.146,0.158,0.3,0.307,0.455,0.457
		c0.017,0.015,0.053,0.012,0.098,0.02c-0.019-0.074-0.034-0.135-0.051-0.199c0.647-0.108,0.647-0.108,0.866,0.372
		c0.1-0.062,0.195-0.12,0.359-0.224c-0.043,0.16-0.073,0.27-0.113,0.414c0.198,0.157,0.43,0.347,0.667,0.529
		c0.387,0.3,0.783,0.591,1.164,0.899c0.068,0.054,0.083,0.171,0.123,0.257c0.154,0.335,0.309,0.67,0.489,1.064
		c0.072-0.141,0.107-0.211,0.158-0.308c0.033,0.065,0.052,0.099,0.07,0.131c0.25,0.444,0.473,0.905,0.76,1.323
		c0.152,0.222,0.417,0.364,0.628,0.544c0.162,0.14,0.409,0.258,0.459,0.432c0.081,0.278,0.167,0.488,0.457,0.587
		c0.067,0.022,0.108,0.112,0.172,0.152c0.109,0.07,0.228,0.124,0.342,0.183c0.019-0.023,0.038-0.046,0.057-0.07
		c0.252,0.44,0.584,0.856,0.733,1.328c0.13,0.421,0.338,0.51,0.705,0.477c0.035-0.004,0.071,0.012,0.098,0.017
		c0.173,0.526,0.285,1.033,0.067,1.561c-0.038,0.093,0.004,0.226,0.03,0.334c0.038,0.158,0.083,0.316,0.144,0.466
		c0.036,0.089,0.108,0.161,0.164,0.241c0.064-0.073,0.156-0.138,0.186-0.223c0.079-0.233,0.133-0.475,0.195-0.71
		c0.042,0.262,0.023,0.513-0.002,0.763c-0.019,0.199-0.044,0.378,0.253,0.379c0.145,0.001,0.29,0.068,0.455,0.111
		c0.119,0.342-0.049,0.668-0.136,1.005c-0.033,0.123-0.017,0.259-0.024,0.39c0.108-0.013,0.215-0.024,0.373-0.038
		c0,0.152,0.044,0.327-0.007,0.463c-0.333,0.88-0.687,1.751-1.037,2.625c-0.456,1.136-0.91,2.273-1.372,3.405
		c-0.381,0.938-0.813,1.846-1.397,2.685c-0.324,0.463-0.75,0.74-1.282,0.808c-1.146,0.152-2.298,0.255-3.446,0.384
		c-0.165,0.018-0.34,0.028-0.483,0.098c-0.577,0.278-1.141,0.58-1.71,0.87c-0.06,0.031-0.133,0.036-0.197,0.054
		c-0.308,0.097-0.625,0.164-0.915,0.296c-0.256,0.117-0.5,0.185-0.762,0.083c-0.331-0.128-0.657-0.09-0.98,0.001
		c-0.527,0.146-0.958,0.442-1.271,0.894c-0.049,0.072-0.04,0.181-0.06,0.271c0.09,0.005,0.187,0.025,0.271,0.006
		c0.171-0.042,0.333-0.13,0.505-0.155c0.593-0.084,1.181-0.082,1.788-0.04c0.71,0.046,1.437-0.125,2.153-0.227
		c0.589-0.082,1.168-0.264,1.758-0.294c1.041-0.051,2.097,0.088,3.107-0.3c0.112-0.041,0.254-0.005,0.381-0.005
		c0.013,0.032,0.026,0.063,0.038,0.097c-0.328,0.302-0.639,0.625-0.988,0.901c-0.6,0.473-0.832,1.121-0.937,1.834
		c-0.014,0.096,0.068,0.204,0.106,0.306c0.097-0.046,0.206-0.079,0.29-0.144c0.128-0.101,0.221-0.284,0.362-0.323
		c0.386-0.116,0.667-0.358,0.943-0.628c0.653-0.639,1.301-1.282,1.971-1.9c0.384-0.354,0.863-0.51,1.389-0.414
		c0.255,0.044,0.499,0.153,0.75,0.216c0.118,0.028,0.247,0.017,0.369,0.023c-0.014-0.117-0.02-0.237-0.048-0.353
		c-0.016-0.063-0.074-0.115-0.105-0.177c-0.164-0.332-0.331-0.66-0.486-0.996c-0.085-0.186-0.007-0.269,0.191-0.284
		c0.331-0.032,0.662-0.086,0.992-0.12c0.116-0.01,0.236,0.011,0.425,0.022c-0.147,0.173-0.243,0.28-0.334,0.392
		c-0.033,0.039-0.077,0.08-0.087,0.126c-0.031,0.142-0.068,0.284-0.068,0.428c0.001,0.161-0.013,0.367,0.075,0.473
		c0.119,0.145,0.28,0.052,0.43-0.07c0.416-0.333,0.866-0.607,1.42-0.652c0.174-0.017,0.346-0.055,0.519-0.086
		c0.389-0.068,0.704-0.293,1.048-0.461c0.596-0.288,1.25-0.462,1.887-0.657c0.494-0.15,0.915-0.404,1.244-0.796
		c0.101-0.121,0.144-0.286,0.23-0.467c0.059,0.087,0.098,0.13,0.119,0.181c0.218,0.536,0.427,0.674,0.991,0.688
		c0.141,0.005,0.281,0.058,0.419,0.102c0.121,0.037,0.236,0.088,0.354,0.133c-0.016-0.136-0.019-0.275-0.052-0.407
		c-0.017-0.071-0.074-0.142-0.13-0.19c-0.154-0.13-0.366-0.217-0.466-0.377c-0.168-0.27-0.301-0.572-0.388-0.878
		c-0.111-0.396-0.17-0.806-0.241-1.212c-0.141-0.83-0.195-1.654,0.142-2.459c0.056-0.135,0.07-0.347,0-0.463
		c-0.357-0.597-0.281-1.231-0.194-1.861c0.118-0.855,0.251-1.705,0.409-2.553c0.058-0.31-0.031-0.68,0.293-0.913
		c0.012-0.008-0.012-0.108-0.036-0.115c-0.205-0.071-0.029-0.231-0.017-0.23c0.336,0.025,0.19-0.188,0.183-0.343
		c-0.008-0.145-0.007-0.295,0.017-0.438c0.01-0.062,0.095-0.168,0.128-0.162c0.282,0.056,0.228-0.148,0.226-0.292
		c0-0.191-0.024-0.385-0.041-0.624c0.147,0.154,0.246,0.259,0.386,0.405c0.131-0.334,0.234-0.596,0.342-0.872
		c0.155,0.117,0.307,0.238,0.517,0.401c-0.015-0.16-0.015-0.227-0.027-0.293c-0.073-0.394-0.062-0.401,0.325-0.272
		c0.059,0.02,0.167,0.026,0.186-0.005c0.034-0.051,0.034-0.141,0.021-0.208c-0.052-0.254-0.113-0.506-0.171-0.758
		c0.039-0.029,0.079-0.058,0.118-0.089c0.103,0.136,0.188,0.294,0.317,0.403c0.077,0.063,0.222,0.046,0.337,0.063
		c-0.021-0.103-0.021-0.219-0.065-0.313c-0.061-0.131-0.154-0.245-0.233-0.366c0.022-0.026,0.045-0.052,0.067-0.078
		c0.311,0.117,0.563,0.433,0.963,0.33c-0.038-0.106-0.068-0.19-0.094-0.262c0.113-0.038,0.208-0.071,0.304-0.102
		c-0.05-0.089-0.099-0.177-0.15-0.266c-0.041-0.067-0.084-0.131-0.159-0.246c0.375,0.055,0.679,0.082,0.857-0.244
		c0.083,0.053,0.149,0.097,0.238,0.153c0.026-0.16,0.047-0.288,0.068-0.416c0.024-0.003,0.048-0.011,0.073-0.013
		c0.122,0.256,0.245,0.515,0.369,0.771c0.037-0.005,0.074-0.012,0.112-0.016c0.136-0.434-0.09-0.864-0.111-1.294
		c0.023-0.02,0.047-0.036,0.071-0.054c0.167,0.157,0.332,0.315,0.542,0.513c0.071-0.211,0.142-0.419,0.215-0.637
		c0.144,0.061,0.274,0.118,0.373,0.161c0.157-0.173,0.285-0.312,0.428-0.471c-0.125-0.07-0.229-0.128-0.35-0.194
		c0.373-0.161,0.386-0.207,0.166-0.57c0.121-0.059,0.238-0.115,0.317-0.154c0.181,0.384,0.337,0.738,0.514,1.083
		c0.086,0.168,0.218,0.173,0.302-0.01c0.142-0.305,0.299-0.006,0.51-0.267c0.275-0.344,0.243-1.107,0.469-0.264
		c0.061,0.226,0.471-0.308,0.58-0.104c0.213,0.395,0.343,0.097,0.577,0.48c0.112,0.186,0.23,0.342,0.488,0.286
		c0.185-0.039,0.249,0.083,0.308,0.237c0.362,0.966,0.747,1.92,1.603,2.582c0.243,0.188,0.423,0.158,0.494-0.142
		c0.08-0.33,0.13-0.673,0.163-1.013c0.027-0.278,0.005-0.562,0.005-0.866c0.525,0.211,0.298-0.352,0.561-0.448
		c0.041,0.034,0.122,0.069,0.147,0.129c0.112,0.258,0.218,0.521,0.307,0.785c0.07,0.212,0.128,0.413,0.414,0.296
		c0.084,0.354,0.242,0.629,0.608,0.842c0.039-0.39,0.071-0.718,0.103-1.045c0.027,0,0.055,0.001,0.084,0.001
		c0.022,0.15,0.049,0.3,0.068,0.45c0.104,0.834,0.202,1.667,0.318,2.497c0.016,0.112,0.127,0.213,0.194,0.318
		c0.027-0.012,0.054-0.023,0.081-0.036c0-0.185,0-0.368,0-0.553c0.128,0.166,0.203,0.343,0.267,0.521
		c0.192,0.543,0.543,1.051,0.372,1.679c-0.014,0.05,0.021,0.151,0.061,0.169c0.045,0.021,0.137-0.008,0.18-0.049
		c0.07-0.062,0.128-0.145,0.175-0.229c0.262-0.481,0.521-0.964,0.778-1.447c0.234-0.444,0.422-0.879,0.37-1.421
		c-0.051-0.541-0.045-1.115,0.086-1.636c0.124-0.501,0.09-0.969,0.034-1.453c-0.043-0.36-0.105-0.72-0.163-1.104
		c0.126,0.043,0.206,0.073,0.351,0.125c0.062-0.861-0.059-1.682-0.08-2.517c0.106,0.109,0.164,0.234,0.217,0.36
		c0.05,0.113,0.087,0.234,0.143,0.346c0.358,0.704,0.89,1.264,1.455,1.799c0.331,0.314,0.558,0.79,1.14,0.664
		c0.332,0.237,0.916,0.236,0.827,0.874c-0.004,0.035,0.029,0.073,0.038,0.109c0.103,0.487,0.203,0.973,0.308,1.458
		c0.034,0.159,0.061,0.323,0.126,0.469c0.149,0.334,0.319,0.66,0.481,0.99c0.013,0.026,0.032,0.046,0.052,0.074
		c0.03-0.082,0.056-0.156,0.111-0.306c0.045,0.189,0.08,0.29,0.091,0.395c0.046,0.444-0.001,0.904,0.235,1.315
		c0.056,0.096,0.077,0.258,0.153,0.286c0.073,0.029,0.197-0.077,0.297-0.123c0.088,0.339,0.18,0.688,0.271,1.038
		c0.028-0.002,0.057-0.004,0.085-0.008c0.062-0.121,0.126-0.241,0.21-0.403c0.078,0.095,0.141,0.173,0.202,0.246
		c0.084-0.342,0.156-0.686,0.23-1.029c0.016-0.076-0.004-0.186,0.042-0.226c0.274-0.239,0.219-0.561,0.248-0.868
		c0.015-0.15,0.09-0.294,0.098-0.443c0.01-0.209-0.015-0.42-0.025-0.629c0.032-0.016,0.063-0.029,0.096-0.046
		c0.27,0.378,0.541,0.754,0.852,1.188c0.018-0.186,0.039-0.318,0.041-0.446c0.005-0.209,0.067-0.332,0.313-0.324
		c0.061,0.002,0.149-0.123,0.183-0.208c0.03-0.075-0.012-0.172-0.002-0.259c0.111-0.969,0.216-1.938,0.346-2.905
		c0.098-0.724-0.02-1.425-0.15-2.127c-0.053-0.297-0.161-0.597-0.037-0.983c0.112,0.146,0.192,0.229,0.249,0.324
		c0.328,0.546,0.627,1.112,0.984,1.639c0.199,0.294,0.523,0.498,0.731,0.785c0.273,0.379,0.457,0.825,0.739,1.197
		c0.234,0.311,0.349,0.72,0.821,0.867c0.283,0.088,0.488,0.424,0.732,0.642c0.062,0.058,0.144,0.092,0.215,0.134
		c0.095,0.063,0.194,0.12,0.287,0.187c0.07,0.05,0.127,0.117,0.197,0.167c0.127,0.092,0.256,0.181,0.391,0.261
		c0.197,0.117,0.443,0.356,0.591,0.307c0.255-0.084,0.335,0.06,0.452,0.169c0.147,0.141,0.27,0.305,0.418,0.476
		c0.102-0.118,0.156-0.18,0.215-0.248c0.04,0.019,0.077,0.029,0.109,0.05c0.347,0.229,0.461,0.218,0.588-0.186
		c0.119-0.384,0.194-0.795,0.217-1.195c0.017-0.3,0.228-0.615-0.007-0.916c-0.005-0.006,0.016-0.033,0.04-0.078
		c0.07,0.055,0.136,0.106,0.202,0.158c0.334,0.263,0.636,0.562,1.084,0.665c0.277,0.063,0.545,0.206,0.792,0.358
		c0.377,0.237,0.712,0.649,0.917,1.044c0.003,0.01,0.007,0.019,0.013,0.027c0.302,0.417-1.397-1.005-1.277-0.506
		c0.059,0.246,0.135,0.492,0.208,0.736c0.053,0.18,0.123,0.339,0.357,0.146c0.253,0.673,0.576,1.268,1.042,1.787
		c0.18-0.22,0.325-0.203,0.494,0.023c0.408,0.544,0.816,1.093,1.226,1.637c0.171,0.228,0.604,0.297,0.785,0.104
		c0.286-0.304,0.642-0.562,0.716-1.019c0.009-0.064,0.072-0.117,0.093-0.181c0.06-0.186,0.167-0.382,0.151-0.562
		c-0.038-0.424-0.153-0.841,0.16-1.214c0.031-0.037,0.022-0.115,0.011-0.171c-0.105-0.507-0.296-0.979-0.281-1.533
		c0.012-0.496-0.277-0.981-0.722-1.327c-0.206-0.158-0.334-0.416-0.497-0.627c0.042-0.033,0.083-0.068,0.124-0.104
		c0.141,0.182,0.281,0.362,0.422,0.542c0.027-0.017,0.055-0.032,0.081-0.048c-0.013-0.08-0.013-0.163-0.041-0.235
		c-0.095-0.247-0.199-0.491-0.301-0.732c-0.165-0.389-0.42-0.762-0.477-1.166c-0.083-0.579-0.31-1.051-0.704-1.461
		c-0.309-0.319-1.001-1.103-1.048-1.167c0.07,0.235-0.22,0.117,0.407,0.906c0.077,0.098,0.192,0.167,0.313,0.271
		c-0.252,0.155-0.158,0.295-0.065,0.459c0.133,0.234,0.228,0.495,0.354,0.734c0.097,0.187,0.215,0.361,0.354,0.59
		c-0.179-0.06-0.304-0.104-0.428-0.145c-0.021,0.021-0.042,0.046-0.062,0.068c0.083,0.122,0.172,0.24,0.249,0.364
		c0.115,0.187,0.226,0.338,0.229,0.609c0.004,0.372,0.164,0.764,0.334,1.109c0.208,0.424,0.508,0.802,0.742,1.218
		c0.103,0.18,0.134,0.366-0.147,0.502c-0.147,0.068-0.213,0.31-0.333,0.499c-0.082-0.101-0.179-0.223-0.321-0.399
		c-0.034,0.219-0.058,0.375-0.083,0.528c-0.023,0.014-0.045,0.026-0.068,0.039c-0.069-0.102-0.167-0.192-0.202-0.307
		c-0.152-0.475-0.266-0.961-0.43-1.431c-0.204-0.579-0.446-1.145-0.671-1.719c-0.194-0.498-0.434-0.987-0.562-1.503
		c-0.059-0.245-0.037-0.511-0.198-0.735c-0.022-0.029-0.041-0.084-0.028-0.111c0.17-0.359,0.06-0.665-0.108-0.938
		c-0.501-0.408-1.357-1.154-1.301-1.004c0.042,0.107,0.087,0.217,0.134,0.322c0.21,0.478,0.92,2.077,0.994,2.249
		c0.168,0.397,0.319,0.801,0.453,1.209c0.36,1.097,0.714,2.195,1.047,3.302c0.029,0.097-0.108,0.264-0.204,0.363
		c-0.045,0.051-0.173,0.019-0.324,0.03c-0.03-0.023-0.119-0.094-0.256-0.203c0.009,0.196,0.015,0.33,0.021,0.473
		c-0.206-0.265-0.445-0.486-0.573-0.761c-0.192-0.413-0.302-0.864-0.46-1.298c-0.034-0.091-0.126-0.162-0.192-0.242
		c-0.054,0.093-0.114,0.18-0.157,0.276c-0.026,0.062-0.026,0.136-0.038,0.204c-0.187-0.255-0.313-0.519-0.413-0.789
		c-0.168-0.466,1.568,0.951,1.412,0.483c-0.025-0.072-0.059-0.154-0.047-0.225c0.053-0.287-0.063-0.505-0.222-0.732
		c-0.159-0.229-0.267-0.496-0.417-0.784c0.184,0.015,0.283,0.023,0.407,0.033c-0.017-0.086-0.035-0.145-0.034-0.198
		c0.004-0.125,0.018-0.251,0.028-0.374c0.099,0.061,0.211,0.108,0.295,0.188c0.239,0.22-1.423-1.437-1.155-1.175
		c0.02-0.111,0.046-0.162,0.033-0.199c-0.098-0.287-0.677-1.321-0.836-1.54c-0.017-0.021,0.014-0.077,0.004-0.107
		c-0.033-0.104-0.047-0.229-0.115-0.301c-0.166-0.18-0.359-0.33-0.538-0.495c-0.014-0.011-0.002-0.053-0.002-0.087
		c0.077-0.015,0.148-0.027,0.227-0.042c-0.057-0.097-0.102-0.175-0.202-0.347c0.429,0.038,0.772,0.069,1.14,0.102
		c-0.206-0.437-0.424-0.786-0.846-0.954c-0.672-0.267-1.344-0.535-2.019-0.799c-0.134-0.052-0.284-0.119-0.418-0.105
		c-0.404,0.04-0.687-0.143-0.973-0.393c-0.17-0.146-0.395-0.299-0.606-0.316c-0.256-0.019-0.409-0.132-0.581-0.285
		c-0.14-0.125-0.305-0.26-0.48-0.3c-0.363-0.089-0.682-0.231-0.953-0.491c-0.219-0.207-0.451-0.4-0.697-0.621
		c-0.159,0.267-0.329,0.185-0.517,0.061c-0.299-0.2-0.607-0.385-0.917-0.564c-0.056-0.032-0.151-0.039-0.215-0.018
		c-0.264,0.096-0.384,0.046-0.513-0.26c0.09-0.033,0.207-0.039,0.264-0.103c0.074-0.08,0.168-0.234,0.137-0.305
		c-0.133-0.299-0.309-0.58-0.471-0.863c-0.081-0.142-0.168-0.278-0.253-0.416c0.014-0.025,0.029-0.052,0.044-0.077
		c0.133,0.028,0.283,0.027,0.398,0.088l2.617,1.896c0.233,0.231,0.561,0.41,0.701,0.685c0.306,0.598,0.913,0.817,1.358,1.231
		c0.032,0.03,0.089,0.04,0.135,0.044c0.147,0.017,0.295,0.024,0.443,0.043c0.105,0.011,0.253,0.082,0.309,0.039
		c0.222-0.18,0.372,0.001,0.559,0.055c0.246,0.07,0.508,0.127,0.759,0.115c0.264-0.015,0.074-0.276,0.148-0.405
		c0.005-0.009,0.012-0.015,0.018-0.025c0.117-0.174,0.069-0.331-0.058-0.481c-0.407-0.481-0.799-0.978-1.221-1.447
		c-0.446-0.497-0.922-0.965-1.381-1.448c-0.186-0.195-0.363-0.4-0.539-0.599c-0.399,0.305-1.12,0.236-1.343-0.079
		c-0.138-0.191-0.297-0.374-0.464-0.542c-0.122-0.124-0.278-0.213-0.408-0.329c-0.062-0.056-0.099-0.139-0.147-0.211
		c0.019-0.018,0.036-0.036,0.054-0.055c0.099,0.052,0.194,0.143,0.296,0.146c0.503,0.027,0.78,0.407,1.123,0.687
		c0.068,0.055,0.137,0.107,0.243,0.19c0.019-0.144,0.028-0.22,0.039-0.316c0.182,0.095,0.347,0.312,0.458,0.003
		c0.23,0.123,0.443,0.224,0.644,0.348c0.104,0.064,0.203,0.151,0.273,0.25c0.222,0.316,0.424,0.643,0.641,0.961
		c0.105,0.154,0.234,0.221,0.381,0.034c0.061,0.072,0.104,0.125,0.149,0.176c0.227,0.251,0.31,0.661,0.761,0.666
		c0.06,0,0.114,0.099,0.179,0.143c0.063,0.039,0.152,0.108,0.2,0.09c0.195-0.079,0.259,0.062,0.358,0.169
		c0.113,0.118,0.233,0.233,0.362,0.337c0.455,0.355,0.918,0.701,1.373,1.062c0.236,0.187,0.497,0.354,0.691,0.58
		c0.474,0.554,1.201,0.817,1.392,1.59c0.006,0.023,0.025,0.042,0.041,0.062c-0.397-0.413-2.961-2.113-2.937-2.062
		c0.139,0.297,1.21,0.867,1.28,1.182c0.049,0.216,0.58,0.585,0.674,0.771c-0.051-0.042-0.107-0.084-0.16-0.126
		c-0.013,0.015,0.161,0.211,0.227,0.257c0.157,0.281,0.344,0.543,0.529,0.812c0.098,0.141,0.201,0.302,0.339,0.386
		c0.211,0.129,0.457,0.201,0.762,0.327c0.145-0.337,0.3-0.695,0.462-1.07c0.083,0.075,0.157,0.137,0.226,0.204
		c0.434,0.413,0.864,0.829,1.299,1.24c0.16,0.151,0.341,0.281,0.497,0.437c0.212,0.212,0.409,0.439,0.614,0.66
		c0.144,0.152,0.293,0.241,0.395,0.078c0.451,0.271,0.872,0.539,1.309,0.779c0.539,0.296,1.118,0.528,1.628,0.866
		c0.279,0.185,0.569,0.173,0.85,0.229c0.105,0.022,0.369-0.181,0.365-0.276C76.05,52.443,76.039,51.984,75.785,51.569z
		 M13.194,15.516c0.096-0.025,0.139,0.131,0.166,0.524c0.027,0.392,0,0-0.157,0.026c-0.157,0.027-0.105,0.052-0.184-0.262
		C13.019,15.805,13.097,15.543,13.194,15.516z M10.003,15.578l0.474,0.929l0.384,0.978c0,0,0,0-0.079-0.157
		c-0.078-0.156-0.33-0.47-0.33-0.47s-0.01-0.001-0.115-0.237c-0.105-0.235-0.105-0.263-0.236-0.709
		c-0.098-0.333-0.079-0.255-0.107-0.238c-0.01,0.005-0.024,0.003-0.05-0.021c-0.105-0.104-0.341-0.394-0.341-0.394
		C9.42,15.039,10.003,15.578,10.003,15.578z M8.773,18.604c0,0-0.182,0.105-0.209-0.366c-0.026-0.473-0.026-0.473-0.026-0.473
		S8.773,18.368,8.773,18.604z M5.783,37.565c-0.047-0.09-0.157-0.194-0.092-0.26C5.811,37.333,5.902,37.464,5.783,37.565z
		 M16.741,36.655c0.065,0.067,0.108,0.241,0.018,0.149C16.695,36.738,16.65,36.563,16.741,36.655z M16.718,17.225l0.007,0.194
		C16.712,17.358,16.702,17.286,16.718,17.225z M15.614,16.713v0.145v0.127l-0.286,0.121c0,0-0.155,0.105,0-0.257L15.614,16.713z
		 M14.283,19.665v0.255c-0.076-0.075-0.055-0.165-0.028-0.301c-0.032-0.067-0.017-0.154-0.128-0.418
		c-0.138-0.323-0.197-0.402-0.197-0.461c0-0.06-0.059-0.256,0-0.06c0.059,0.197,0.197,0.138,0.255,0.314
		c0.06,0.178,0.098,0,0.098,0.335c0,0.121-0.015,0.21-0.028,0.289C14.262,19.635,14.268,19.648,14.283,19.665z M14.006,31.043
		c-0.045-0.091-0.155-0.193-0.09-0.26C14.037,30.81,14.125,30.941,14.006,31.043z M13.826,21.675
		c-0.121-0.027-0.145-0.143-0.09-0.259C13.834,21.553,13.956,21.521,13.826,21.675z M13.442,19.863
		c-0.029,0.089-0.148,0.059-0.148,0v-0.138L13.442,19.863z M13.201,32.848c-0.065-0.066-0.108-0.24-0.019-0.147
		C13.248,32.765,13.292,32.938,13.201,32.848z M11.166,18.961c-0.024-0.036-0.048-0.073-0.074-0.11
		c0.038-0.023,0.075-0.05,0.11-0.073c0.026,0.037,0.05,0.075,0.073,0.112C11.239,18.913,11.202,18.939,11.166,18.961z
		 M11.112,32.945c-0.056-0.07-0.273-0.396-0.09-0.258C11.077,32.755,11.295,33.083,11.112,32.945z M11.283,35.143
		c0.06,0.109,0.086,0.209,0.034,0.295C11.266,35.334,11.079,35.196,11.283,35.143z M6.089,27.242
		C5.966,27.159,5.86,26.01,6.04,26.146C5.949,26.21,6.16,27.176,6.089,27.242z M6.971,22.038c-0.036-0.055-0.09-0.036-0.129-0.075
		c0.069-0.049,0.031-0.12,0.131-0.164C7.038,21.893,7.024,21.97,6.971,22.038z M7.219,29.205
		C7.167,28.832,7.491,29.304,7.219,29.205L7.219,29.205z M7.155,25.622l0.108-0.137l0.107,0.275L7.155,25.622z M8.432,39.168
		c-0.113-0.133-0.043-0.23,0.112-0.312C8.657,38.992,8.587,39.091,8.432,39.168z M10.599,20.769
		c-0.052-0.106-0.239-0.241-0.035-0.296C10.663,20.59,10.689,20.69,10.599,20.769z M10.955,36.21c-0.21,0.038,0-0.41,0-0.41
		c-0.026,0.286,0.524,0.41,0.524,0.41S11.165,36.171,10.955,36.21z M11.674,20.221c0.168,0.028,0.101,0.183,0.036,0.297
		C11.648,20.408,11.624,20.307,11.674,20.221z M11.818,35.35C11.407,34.931,12.025,35.093,11.818,35.35L11.818,35.35z
		 M12.402,36.688c-0.053-0.524-0.21-0.473-0.21-1.075s-0.131-0.111-0.21-0.576c-0.031-0.179,0.286-0.289,0.286-0.289
		s0.081,0.314,0,0.603c-0.081,0.29,0.186,0.576,0.265,0.944C12.611,36.661,12.454,37.212,12.402,36.688z M12.607,33.157
		c-0.182-0.109-0.12-0.401,0.056-0.277C12.564,32.955,12.747,33.09,12.607,33.157z M13.457,36.276c0,0,0,0-0.132,0.026
		c-0.131,0.027-0.209-0.104-0.209-0.104v-0.474c0-0.182,0.341,0.292,0.341,0.292V36.276z M13.538,37.174c0,0-0.039-0.077,0-0.099
		c0.039-0.018-0.02-0.146,0.039-0.018c0.06,0.127,0.069,0.067,0.06,0.127c-0.01,0.059-0.02-0.011-0.01,0.059
		c0.01,0.067,0.01-0.138,0.01,0.067c0,0.208,0,0.208,0,0.208s-0.032-0.089,0.003,0.039l-0.102-0.247
		C13.548,37.215,13.538,37.174,13.538,37.174z M14.033,39.218c-0.188-0.305-0.15-0.384-0.09-0.396l-0.303-0.65l0.263,0.15v0.175
		c0,0-0.106,0,0,0.106c0.104,0.104,0.13,0.227,0.13,0.227s-0.05-0.019-0.09-0.008l0.484,1.036
		C14.426,39.857,14.347,39.729,14.033,39.218z M14.677,21.689l-0.137-0.197l0.176-0.156c0,0,0,0-0.017,0.115
		c-0.017,0.119,0.154,0.139,0.154,0.139S14.913,21.786,14.677,21.689z M15.23,19.362v-0.138c0,0,0.108-0.159,0.147,0L15.23,19.362z
		 M15.819,42.285c-0.097-0.182-0.321-0.101-0.276-0.298C15.744,41.847,15.917,42.139,15.819,42.285z M15.987,27.508
		c-0.065-0.063-0.11-0.242-0.017-0.147C16.035,27.425,16.078,27.601,15.987,27.508z M16.521,19.106
		c-0.14-0.071-0.087-0.322,0.038-0.184C16.486,18.972,16.572,19.054,16.521,19.106z M16.73,44.157
		c-0.112-0.121,0.022-0.19-0.127-0.316c0.135-0.113,0.232-0.045,0.312,0.112C16.852,44.021,16.861,44.103,16.73,44.157z
		 M16.88,26.441c-0.053-0.104-0.239-0.238-0.035-0.297C16.944,26.264,16.969,26.364,16.88,26.441z M16.955,20.495
		c-0.032-0.118-0.283-0.282-0.164-0.37c0.093,0.09,0.225-0.004,0.294,0.203C17.007,20.377,16.981,20.438,16.955,20.495z
		 M16.856,17.253l0.183,0.039C16.98,17.294,16.929,17.288,16.856,17.253c0.071-0.047,0.183-0.121,0.277-0.183L16.856,17.253z
		 M17.352,22.069l0.146,0.223C17.438,22.242,17.358,22.143,17.352,22.069z M18.104,28.667c-0.106-0.025-0.226,0.004-0.295-0.205
		C17.971,28.33,18.275,28.523,18.104,28.667z M18.081,26.451c-0.023-0.038-0.048-0.074-0.073-0.112
		c0.038-0.025,0.075-0.047,0.111-0.072c0.025,0.036,0.05,0.074,0.074,0.11C18.155,26.403,18.118,26.428,18.081,26.451z
		 M18.47,48.764c-0.016-0.008-0.028-0.017-0.044-0.027l0.334-0.099C18.697,48.746,18.573,48.727,18.47,48.764z M19.081,37.067
		c-0.065-0.229-0.12-0.418-0.187-0.647C19.295,36.647,19.328,36.759,19.081,37.067z M19.084,28.342
		c0.032-0.027,0.06-0.053,0.02-0.094c0.037-0.023,0.073-0.048,0.111-0.073C19.391,28.256,19.132,28.462,19.084,28.342z
		 M19.741,47.038C19.43,46.69,19.841,46.707,19.741,47.038L19.741,47.038z M20.034,24.209c-0.323-0.048-0.101-0.667,0.095-0.462
		C20.08,23.896,20.266,24.098,20.034,24.209z M27.414,31.302c0.119,0.181,0.215,0.303,0.281,0.44c0.025,0.049-0.029,0.134-0.045,0.2
		c-0.058-0.024-0.152-0.034-0.168-0.072C27.42,31.711,27.218,31.568,27.414,31.302z M26.342,40.227
		c-0.062,0.032,0.045,0.315-0.13,0.166C26.311,40.368,26.204,40.085,26.342,40.227z M26.144,39.775
		c-0.543-0.047-0.642-0.137-0.646-0.609C25.736,39.391,25.91,39.556,26.144,39.775z M25.255,41.21
		c0.069,0.055,0.175,0.101,0.197,0.173c0.03,0.09-0.009,0.199-0.026,0.374c-0.096-0.14-0.177-0.223-0.213-0.325
		C25.19,41.372,25.238,41.286,25.255,41.21z M24.813,30.87c-0.087,0.148,0.222,0.165,0.072,0.353
		C24.759,31.111,24.635,30.763,24.813,30.87z M24.198,28.724c-0.105,0.113,0.125,0.043,0.054,0.204
		c0.031-0.021,0.093,0.004,0.037,0.055C24.135,29.016,24.024,28.605,24.198,28.724z M23.246,37.654
		c0.164,0.313,0.326,0.629,0.512,0.989c-0.129,0.028-0.185,0.041-0.241,0.049c-0.074,0.012-0.147,0.017-0.22,0.024
		c0.004-0.082,0.013-0.162,0.01-0.244c-0.005-0.145-0.006-0.293-0.034-0.434c-0.023-0.118-0.08-0.23-0.122-0.342
		C23.183,37.681,23.215,37.666,23.246,37.654z M22.978,31.838c-0.083,0.124-0.344,0.021-0.221-0.094
		C22.823,31.814,22.91,31.777,22.978,31.838z M21.889,25.938c0.084-0.016,0.165-0.021,0.24,0.001
		C22.061,25.997,21.765,26.054,21.889,25.938z M21.405,26.258c0,0,0.036,0.063,0.081,0.146c0.057,0.027,0.13,0.066,0.196,0.109
		c0.117,0.077,0.059,0.156,0.137,0.354c0.079,0.195,0.117,0.098,0.354,0.355c0.236,0.253,0,0.155,0,0.155s0.119,0.255,0.138,0.395
		c0.02,0.137,0,0,0.039,0.099c0.039,0.097,0.099,0.058,0.216,0.313c0.118,0.255,0.216,0.864,0.216,0.864s0,0-0.196-0.441
		c-0.013-0.027-0.025-0.058-0.04-0.09c-0.177-0.399-0.155-0.308-0.165-0.297c-0.005,0.002-0.012-0.003-0.032-0.036l-0.157-0.532
		c-0.117-0.117-0.176-0.097-0.432-0.43c-0.255-0.337-0.019-0.1-0.04-0.276c-0.019-0.177,0,0-0.019-0.099
		c-0.012-0.063-0.132-0.29-0.214-0.443c-0.046-0.024-0.081-0.038-0.081-0.038V26.258z M21.21,47.319
		c-0.023-0.104,0.022-0.027,0-0.236c-0.023-0.21,0.056-0.078-0.023-0.21c-0.079-0.131-0.157-0.158-0.13-0.261
		c0.026-0.106-0.004-0.341-0.004-0.341l0.333-0.183c-0.07,0.039-0.19,0.13-0.171,0.26c0.026,0.185,0.026,0.185,0.026,0.185
		l0.083,0.314c0,0,0.018,0.025,0.112,0.182c0.093,0.159,0.172,0.263,0.172,0.343c0,0.078-0.158,0.157,0,0.444
		c0.157,0.289,0.157,0.341,0.183,0.446c0.026,0.104,0.158,0.314,0.158,0.314l-0.513-0.761c0,0-0.252-0.077-0.224-0.209
		S21.233,47.423,21.21,47.319z M21.746,36.632c-0.104-0.107-0.288,0.159-0.426,0.201c-0.155-0.384,0.204-0.778,0.447-0.533
		C21.778,36.311,21.669,36.613,21.746,36.632z M21.155,30.884c0.104,0.02,0.19,0.244,0.164,0.369
		C21.287,31.136,21.038,30.973,21.155,30.884z M21.225,35.123c0.09,0.246,0.172,0.473,0.275,0.758
		C20.959,35.596,20.929,35.501,21.225,35.123z M20.994,24.456C20.701,24.345,21.037,24.078,20.994,24.456L20.994,24.456z
		 M21.174,50.221c-0.05-0.03-0.096-0.064-0.145-0.098c0.687,0.14,1.403,0.245,1.95,0.689c0.31,0.252,0.573,0.515,0.987,0.572
		c0.093,0.015,0.172,0.142,0.257,0.216c-0.012,0.036-0.026,0.07-0.039,0.107c-0.222-0.053-0.467-0.062-0.661-0.163
		C22.731,51.119,21.955,50.665,21.174,50.221z M27.376,65.275c-0.006,0.368-0.092,0.733-0.205,1.093
		c-0.018-0.085-0.037-0.173-0.054-0.259c-0.027,0.002-0.054,0.002-0.082,0.003c0,0.228-0.012,0.458,0.002,0.686
		c0.037,0.596-0.113,1.142-0.404,1.66c-0.165,0.288-0.31,0.589-0.443,0.895c-0.171,0.389-0.499,0.531-0.88,0.603
		c-0.991,0.188-1.98,0.385-2.975,0.555c-0.333,0.056-0.681,0.024-1.02,0.057c-0.25,0.021-0.496,0.079-0.717,0.115
		c-0.006-0.104-0.008-0.207-0.02-0.312c-0.069-0.651,0.036-1.266,0.345-1.851c0.453-0.857,0.905-1.712,1.33-2.585
		c0.46-0.951,0.876-1.919,1.343-2.865c0.119-0.242,0.355-0.424,0.538-0.635c0.005-0.007,0.02-0.018,0.023-0.016
		c0.396,0.264,0.552-0.396,0.94-0.251c0.05,0.018,0.229-0.218,0.3-0.36c0.15-0.309,0.294-0.615,0.64-0.795
		c0.007,0.101,0.013,0.192,0.023,0.329c0.28-0.261,0.453-0.067,0.634,0.093c0.035-0.114,0.07-0.232,0.106-0.354
		c0.148,0.01,0.274,0.021,0.464,0.033c0.036,0.266,0.103,0.538,0.106,0.812C27.387,63.043,27.393,64.159,27.376,65.275z
		 M27.708,41.332c-0.135-0.387-0.263-0.756-0.392-1.126C27.664,40.506,27.945,40.823,27.708,41.332z M54.496,40.166
		c-0.008,0.037-0.016,0.075-0.023,0.116C54.43,40.243,54.452,40.203,54.496,40.166z M54.351,44.857
		c0.02-0.026,0.04-0.056,0.061-0.083c0.025,0.057,0.051,0.112,0.077,0.169C54.399,44.915,54.26,44.887,54.351,44.857z
		 M53.371,38.621c0.172,0.131,0.344,0.261,0.515,0.392c-0.03,0.038-0.06,0.076-0.09,0.116c-0.167-0.138-0.333-0.275-0.5-0.415
		C53.321,38.683,53.346,38.652,53.371,38.621z M52.435,40.678c0.679,0.355,1.263,0.809,1.548,1.562
		c-0.028,0.027-0.056,0.056-0.083,0.08c-0.515-0.521-1.03-1.042-1.547-1.563C52.38,40.731,52.407,40.704,52.435,40.678z
		 M51.88,41.996c0.313,0.324,0.551,0.664,0.742,1.053c-0.018,0.023-0.036,0.048-0.054,0.072c-0.11-0.085-0.215-0.181-0.334-0.252
		c-0.073-0.041-0.168-0.042-0.254-0.062c0.025,0.083,0.026,0.193,0.082,0.245c0.098,0.089,0.23,0.143,0.348,0.21
		c-0.045,0.062-0.091,0.123-0.137,0.184c-0.383-0.165-0.767-0.327-1.151-0.491c0-0.041,0-0.078,0.002-0.117
		c0.145-0.07,0.286-0.155,0.437-0.215c0.277-0.106,0.308-0.312,0.097-0.528c-0.378-0.393-0.873-0.579-1.345-0.809
		c-0.377-0.185-0.757-0.364-1.129-0.56c-0.468-0.243-0.933-0.499-1.395-0.757c-0.072-0.04-0.121-0.126-0.142-0.229
		c0.114,0.034,0.228,0.067,0.341,0.101c0.022-0.028,0.044-0.057,0.066-0.086c-0.24-0.239-0.473-0.492-0.724-0.723
		c-0.195-0.179-0.41-0.335-0.618-0.497c-0.202-0.159-0.432-0.275-0.486-0.582c-0.024-0.135-0.218-0.239-0.345-0.348
		c-0.411-0.349-0.826-0.69-1.237-1.038c-0.072-0.062-0.127-0.141-0.222-0.246c0.258-0.037,0.435-0.043,0.609,0.146
		c0.214,0.235,0.501,0.401,0.724,0.632c0.393,0.405,0.735,0.857,1.146,1.24c0.469,0.439,0.986,0.825,1.49,1.225
		c0.591,0.464,1.192,0.92,1.792,1.376c0.084,0.063,0.179,0.134,0.279,0.152C51.062,41.2,51.468,41.566,51.88,41.996z M47.099,39.607
		c-0.021,0.034-0.04,0.068-0.061,0.101c-0.208,0.054-0.282-0.116-0.328-0.33C46.84,39.454,46.97,39.529,47.099,39.607z
		 M47.763,38.369c0.178,0.064,0.396,0.088,0.528,0.207c0.515,0.469,0.98,0.951,1.264,1.253c-0.361-0.226-1.401-0.793-1.729-1.242
		C47.788,38.538,47.751,38.388,47.763,38.369z M48.84,37.317c0.022-0.026,0.141-0.021,0.178,0.013
		c0.25,0.224,0.489,0.458,0.736,0.691c-0.24,0.374-0.19,0.437,0.251,0.655c0.277,0.136,0.507,0.373,0.746,0.58
		c0.313,0.271,0.614,0.559,0.898,0.898c-0.081-0.027-0.169-0.04-0.239-0.083c-0.946-0.59-1.893-1.179-2.834-1.774
		c-0.717-0.453-1.253-1.108-1.872-1.675c-0.489-0.447-0.973-0.9-1.458-1.353c0.016-0.038,0.031-0.079,0.048-0.116
		c0.188,0.068,0.42,0.093,0.554,0.22c0.568,0.547,1.086,1.146,1.665,1.682c0.609,0.562,1.265,1.078,1.902,1.613
		c0.023,0.02,0.069,0.014,0.15,0.03c-0.175-0.316-0.188-0.67-0.529-0.851c-0.112-0.059-0.198-0.191-0.261-0.31
		C48.747,37.489,48.794,37.377,48.84,37.317z M44.917,29.548c0.017,0.031,0.032,0.06,0.048,0.092
		c-0.463,0.51-1.192,0.435-1.722,0.797c-0.017-0.036-0.033-0.072-0.051-0.109C43.767,30.067,44.342,29.808,44.917,29.548z
		 M42.933,31.718c0.31,0.068,0.621,0.126,0.926,0.206c0.53,0.139,1.055,0.298,1.585,0.437c0.412,0.106,0.838,0.163,1.241,0.295
		c0.365,0.123,0.71,0.307,1.055,0.483c0.089,0.042,0.138,0.163,0.217,0.238c0.068,0.062,0.145,0.127,0.229,0.161
		c0.117,0.048,0.244,0.067,0.388,0.105c-0.154,0.271-0.315,0.285-0.59,0.217c-0.347-0.087-0.633-0.27-0.95-0.396
		c-0.583-0.235-1.21-0.353-1.804-0.563c-0.607-0.212-1.199-0.473-1.79-0.727c-0.198-0.086-0.373-0.229-0.558-0.345
		C42.9,31.793,42.917,31.754,42.933,31.718z M37.229,29.995c0.262,0.027,0.546-0.024,0.788,0.056
		c0.584,0.196,1.183,0.085,1.771,0.125c0.421,0.029,0.849-0.08,1.273-0.115c0.154-0.014,0.31,0.014,0.464,0.019
		c0.227,0.004,0.454,0.001,0.701,0.001c-0.322,0.241-0.67,0.398-1.077,0.463c-0.303,0.047-0.593,0.172-0.894,0.238
		c-0.163,0.036-0.353,0.064-0.508,0.019c-0.708-0.211-1.42-0.354-2.165-0.338c-0.255,0.006-0.514-0.085-0.786-0.135
		C36.818,30.064,36.958,29.961,37.229,29.995z M39.594,34.778c-0.02,0.017-0.042,0.032-0.062,0.048
		c-0.412-0.357-0.824-0.715-1.235-1.071c0.013-0.021,0.027-0.045,0.041-0.066c0.119,0.076,0.241,0.151,0.356,0.231
		c0.147,0.103,0.28,0.154,0.388-0.151C39.272,34.143,39.434,34.46,39.594,34.778z M28.452,37.304
		c-0.059-0.054-0.163-0.103-0.17-0.162c-0.045-0.366-0.069-0.732-0.048-1.134c0.12,0.146,0.241,0.295,0.386,0.474
		C28.211,36.692,28.489,36.978,28.452,37.304z M29.051,38.858c-0.107-0.131-0.214-0.26-0.323-0.391
		c0.026-0.021,0.054-0.046,0.081-0.067c0.062,0.168,0.34,0.154,0.331,0.384C29.11,38.809,29.081,38.834,29.051,38.858z
		 M30.741,43.243c-0.143-0.36-0.473-0.64-0.671-0.985c-0.243-0.42-0.437-0.87-0.636-1.313c-0.046-0.099-0.031-0.226,0.021-0.362
		c0.077,0.144,0.163,0.286,0.231,0.436c0.172,0.383,0.325,0.772,0.509,1.15c0.054,0.112,0.165,0.233,0.278,0.272
		c0.22,0.075,0.322,0.224,0.42,0.415c0.132,0.26,0.301,0.502,0.452,0.754c0.052,0.084,0.099,0.174,0.162,0.282
		C31,43.895,30.886,43.601,30.741,43.243z M30.519,40.391c0.353,0.091,0.482,0.278,0.538,0.544c-0.115,0.074-0.218,0.14-0.369,0.235
		C30.633,40.917,30.582,40.683,30.519,40.391z M31.403,37.955c-0.088-0.122-0.258-0.187-0.39-0.276
		c-0.02,0.019-0.039,0.038-0.058,0.053c0.169,0.396,0.336,0.788,0.539,1.261c-0.148-0.075-0.21-0.109-0.287-0.147
		c-0.038,0.089-0.074,0.173-0.15,0.355c-0.112-0.195-0.223-0.318-0.255-0.46c-0.054-0.225-0.038-0.465-0.083-0.693
		c-0.123-0.62-0.209-1.259-0.586-1.797c-0.249-0.355-0.391-0.787-0.765-1.062c-0.092-0.068-0.07-0.274-0.122-0.407
		c-0.171-0.431-0.338-0.866-0.536-1.282c-0.078-0.161-0.237-0.283-0.354-0.426c-0.051-0.064-0.09-0.139-0.135-0.207
		c0.036-0.03,0.072-0.063,0.107-0.096c0.167,0.189,0.379,0.354,0.493,0.573c0.274,0.526,0.489,1.085,0.758,1.616
		c0.063,0.127,0.221,0.242,0.36,0.288c0.344,0.108,0.48,0.265,0.427,0.62c-0.053,0.343,0.216,0.521,0.37,0.756
		c0.152,0.234,0.318,0.459,0.477,0.687c0.043,0.063,0.076,0.146,0.137,0.186c0.331,0.212,0.669,0.41,1.015,0.62
		c-0.27,0.266-0.029,0.514,0.134,0.737c0.169,0.23,0.277,0.451,0.247,0.749c-0.01,0.099,0.067,0.214,0.113,0.317
		c0.048,0.108,0.108,0.211,0.164,0.319c-0.03,0.015-0.061,0.032-0.091,0.048c-0.232-0.361-0.463-0.724-0.698-1.082
		C31.96,38.784,31.696,38.359,31.403,37.955z M32.959,42.412c-0.122-0.083-0.18-0.379,0.001-0.241
		C32.869,42.233,33.03,42.348,32.959,42.412z M31.628,41.719c0.037-0.019,0.074-0.037,0.111-0.056
		c0.102,0.199,0.204,0.402,0.305,0.604c-0.037,0.021-0.075,0.039-0.112,0.059C31.831,42.124,31.729,41.921,31.628,41.719z
		 M32.156,44.555c-0.22-0.303-0.202-0.486,0.091-0.81c0.477,0.808,0.449,1.752,0.752,2.586c-0.199-0.277-0.407-0.548-0.592-0.834
		c-0.04-0.061-0.034-0.222,0.01-0.255c0.185-0.136,0.093-0.251,0.001-0.371C32.335,44.761,32.236,44.666,32.156,44.555z
		 M32.562,48.961c-0.064-0.111-0.13-0.225-0.195-0.336c0.045-0.024,0.127-0.074,0.131-0.069c0.072,0.106,0.136,0.22,0.202,0.331
		C32.655,48.91,32.608,48.936,32.562,48.961z M33.209,47.45c-0.025,0.006-0.05,0.012-0.075,0.015
		c-0.055-0.231-0.109-0.465-0.163-0.697c0.04-0.008,0.078-0.018,0.118-0.028C33.362,46.938,33.08,47.23,33.209,47.45z
		 M33.964,49.736c-0.213-0.223-0.319-0.484-0.304-0.794c0.035-0.015,0.068-0.028,0.103-0.043c0.103,0.267,0.207,0.53,0.31,0.795
		C34.036,49.709,34,49.723,33.964,49.736z M34.932,39.968c-0.051,0.04-0.101,0.083-0.152,0.123c0.033,0.115,0.068,0.233,0.087,0.3
		c-0.062,0.118-0.107,0.207-0.187,0.36l-1.33-1.681c0.02-0.019,0.039-0.038,0.059-0.058c0.093,0.067,0.186,0.136,0.277,0.203
		c0.041-0.04,0.064-0.06,0.082-0.079c0.087-0.099,0.181-0.284,0.26-0.28c0.208,0.02,0.422,0.102,0.484,0.357
		C34.577,39.468,35.075,40.171,34.932,39.968z M34.305,32.43c0.589,0.058,0.959,0.372,1.241,0.84
		C35.167,33.43,34.512,32.98,34.305,32.43z M35.599,36.437c-0.029,0.036-0.059,0.074-0.088,0.111
		c-0.302-0.253-0.604-0.507-0.906-0.761c0.022-0.026,0.045-0.056,0.068-0.084C34.981,35.949,35.29,36.192,35.599,36.437z
		 M35.801,39.588c-0.34-0.362-0.695-0.716-1.014-1.097c-0.138-0.163-0.208-0.386-0.294-0.589c-0.013-0.031,0.045-0.13,0.072-0.131
		c0.058-0.001,0.136,0.025,0.173,0.067c0.214,0.254,0.438,0.501,0.625,0.776c0.196,0.286,0.354,0.601,0.527,0.902
		C35.86,39.541,35.832,39.564,35.801,39.588z M35.221,31.771c-0.083-0.056-0.218-0.037-0.346-0.057
		c-0.007,0.139-0.012,0.24-0.019,0.396c-0.101-0.059-0.167-0.088-0.222-0.131c-0.201-0.149-0.374-0.338-0.674-0.275
		c-0.087,0.02-0.202-0.099-0.304-0.151c-0.235-0.123-0.468-0.249-0.74-0.394l-2.342-1.068c0.016-0.035,0.029-0.071,0.044-0.108
		c0.26,0.09,0.52,0.179,0.779,0.269c0.304,0.103,0.6,0.241,0.913,0.303c0.682,0.135,1.371,0.233,2.06,0.342
		c0.092,0.015,0.195,0.007,0.286-0.017c0.247-0.058,0.484-0.11,0.662,0.146c0.025,0.038,0.084,0.078,0.122,0.073
		c0.407-0.055,0.615,0.304,0.93,0.438c0.267,0.117,0.2,0.346,0.081,0.563c0.517,0.484,1.172,0.75,1.608,1.277
		c-0.014,0.021-0.031,0.043-0.046,0.063c-0.354-0.245-0.708-0.489-1.061-0.733c-0.01,0.013-0.02,0.026-0.029,0.041
		c0.611,0.636,1.224,1.271,1.836,1.909c-0.026,0.029-0.051,0.058-0.075,0.084c-0.147-0.107-0.288-0.226-0.44-0.324
		c-0.251-0.157-0.553-0.263-0.521-0.653c0.005-0.062-0.097-0.14-0.162-0.194c-0.34-0.294-0.675-0.596-1.03-0.867
		C36.105,32.373,35.665,32.068,35.221,31.771z M38.412,43.166c-0.344-0.424-0.69-0.842-1.029-1.268
		c-0.037-0.047-0.063-0.149-0.037-0.188c0.181-0.249-0.005-0.401-0.148-0.553c-0.268-0.284-0.554-0.555-0.822-0.839
		c-0.083-0.09-0.135-0.205-0.202-0.311c0.035-0.024,0.069-0.051,0.104-0.078c0.399,0.196,0.675,0.539,0.95,0.872
		c0.246,0.3,0.459,0.628,0.686,0.945c0.034,0.048,0.068,0.099,0.091,0.15c0.145,0.355,0.286,0.715,0.429,1.074
		c0.019,0.045,0.037,0.086,0.057,0.133C38.464,43.123,38.438,43.145,38.412,43.166z M38.507,40.46
		c-0.056-0.043-0.119-0.081-0.165-0.133c-0.324-0.352-0.631-0.723-0.971-1.058c-0.148-0.145-0.352-0.249-0.549-0.327
		c-0.311-0.121-0.49-0.335-0.559-0.651c-0.034-0.163-0.264-0.311,0.019-0.54c0.425,0.447,0.854,0.901,1.326,1.4
		c0.034-0.149,0.056-0.246,0.091-0.402c0.244,0.418,0.542,0.586,0.969,0.26c-0.125-0.184-0.139-0.362-0.031-0.576
		c0.056-0.112-0.02-0.29,0-0.447c0.093,0.292,0.386,0.515,0.264,0.871c-0.01,0.026-0.021,0.07-0.008,0.086
		c0.301,0.438,0.159,1.01,0.489,1.459c0.32,0.436,0.537,0.946,0.752,1.459c-0.063-0.077-0.131-0.153-0.187-0.236
		c-0.077-0.116-0.103-0.282-0.316-0.234c-0.045,0.01-0.125-0.108-0.177-0.176c-0.306-0.394-0.61-0.788-0.912-1.187
		c-0.035-0.046-0.049-0.108-0.074-0.164c-0.026,0.028-0.053,0.056-0.079,0.085c0.061,0.155,0.122,0.312,0.184,0.469
		C38.552,40.432,38.53,40.446,38.507,40.46z M40.339,46.707c-0.033-0.053-0.092-0.104-0.092-0.159
		c-0.001-0.156,0.02-0.313-0.024-0.473c-0.181,1.077-0.064,2.161-0.092,3.245c-0.029,0.01-0.058,0.021-0.088,0.029
		c-0.054-0.176-0.143-0.35-0.156-0.533c-0.064-0.903-0.278-1.759-0.778-2.526c-0.106-0.163-0.259-0.293-0.382-0.445
		c-0.041-0.052-0.053-0.127-0.08-0.192c0.054-0.021,0.075-0.038,0.089-0.034c0.493,0.19,0.569,0.095,0.546-0.444
		c-0.019-0.399-0.146-0.727-0.353-1.051c-0.091-0.143-0.134-0.316-0.2-0.477c0.021-0.014,0.041-0.026,0.062-0.037
		c0.101,0.142,0.196,0.292,0.307,0.428c0.426,0.521,0.848,1.046,1.294,1.549c0.199,0.225,0.375,0.404,0.129,0.702
		c-0.055,0.064-0.03,0.192-0.063,0.282C40.439,46.623,40.38,46.662,40.339,46.707z M40.33,41.416
		c0.018-0.005,0.036-0.009,0.054-0.015c0.216,0.829,0.431,1.659,0.646,2.489c-0.016,0.007-0.03,0.016-0.045,0.023
		c-0.096-0.269-0.194-0.54-0.292-0.808c-0.1-0.276-0.234-0.544-0.296-0.829C40.336,41.999,40.349,41.707,40.33,41.416z
		 M40.466,51.005c0.025-0.003,0.051-0.008,0.078-0.012c0.182,0.912,0.365,1.825,0.562,2.804
		C40.619,53.536,40.319,52.019,40.466,51.005z M41.196,41.216c-0.062,0.137-0.096,0.212-0.157,0.354
		c-0.234-0.365-0.446-0.682-0.644-1.006c-0.028-0.048-0.012-0.136,0.013-0.19c0.058-0.135,0.134-0.261,0.207-0.397
		c0.601,0.348,0.831,0.954,0.844,1.681C41.384,41.529,41.308,41.401,41.196,41.216z M42.639,33.098
		c-0.708-0.3-1.417-0.602-2.139-0.871c-0.327-0.12-0.32-0.378-0.37-0.626c0.369,0,0.729-0.009,1.089,0.006
		c0.107,0.005,0.234,0.054,0.314,0.127c0.322,0.281,0.619,0.592,0.945,0.867c0.731,0.623,1.475,1.229,2.212,1.846
		c0.042,0.034,0.067,0.088,0.099,0.133c-0.018,0.023-0.037,0.049-0.056,0.073c-0.554-0.289-1.11-0.568-1.66-0.863
		c-0.061-0.033-0.115-0.149-0.11-0.222C42.981,33.315,42.834,33.18,42.639,33.098z M43.003,41.773
		c0.42,0.189,1.089,1.71,0.929,2.057C43.624,43.147,43.312,42.455,43.003,41.773z M43.868,45.511
		c-0.064-0.189-0.128-0.377-0.193-0.567c0.042-0.014,0.084-0.027,0.125-0.041c0.063,0.189,0.126,0.381,0.189,0.571
		C43.948,45.488,43.908,45.5,43.868,45.511z M47.564,53.261c0.005,0.068,0.032,0.137,0.025,0.203
		c-0.051,0.466-0.108,0.934-0.161,1.384c-0.169-0.724-0.443-1.458-0.206-2.26c-0.031-0.006-0.062-0.009-0.093-0.012
		c-0.073,0.047-0.146,0.093-0.239,0.15c-0.177-0.416,0.133-0.96-0.353-1.295c0-0.413,0.021-0.875-0.005-1.33
		c-0.026-0.445-0.103-0.889-0.158-1.329c-0.026-0.007-0.054-0.01-0.081-0.013c-0.055,0.112-0.112,0.224-0.174,0.351
		c-0.242-0.107-0.238-0.307-0.216-0.499c0.024-0.225,0.08-0.445,0.097-0.67c0.01-0.136-0.03-0.276-0.051-0.441
		c-0.162,0.128-0.276,0.217-0.391,0.31c-0.031-0.018-0.062-0.032-0.095-0.048c0.025-0.154,0.043-0.308,0.075-0.461
		c0.059-0.279,0.133-0.533-0.147-0.776c-0.118-0.104-0.111-0.36-0.145-0.552c-0.071-0.397-0.021-0.829-0.364-1.149
		c-0.069-0.063-0.074-0.251-0.044-0.363c0.129-0.498-0.051-0.937-0.25-1.36c-0.283-0.601-0.548-1.221-1.049-1.69
		c-0.007-0.005-0.014-0.011-0.018-0.021c-0.249-0.515-0.497-1.031-0.745-1.548c0.024-0.018,0.048-0.032,0.072-0.048
		c0.08,0.096,0.172,0.186,0.238,0.292c0.405,0.662,0.801,1.327,1.208,1.987c0.138,0.225,0.282,0.446,0.449,0.65
		c0.405,0.49,0.518,1.101,0.711,1.682c0.037,0.113,0.118,0.212,0.183,0.315c0.046,0.072,0.125,0.135,0.145,0.214
		c0.121,0.492,0.232,0.985,0.342,1.479c0.063,0.286,0.116,0.574,0.181,0.856c0.164,0.72,0.332,1.436,0.499,2.152
		c0.039,0.003,0.08,0.005,0.119,0.009c0.041-0.103,0.116-0.202,0.116-0.306c0-0.315-0.021-0.637-0.048-0.954
		c-0.044-0.524-0.101-1.044-0.152-1.583c0.428,0.19,0.623,0.505,0.591,0.917c-0.006,0.087-0.018,0.18-0.001,0.265
		c0.177,0.931,0.037,1.875,0.149,2.811c0.056,0.453-0.087,0.928-0.094,1.394C47.479,52.403,47.535,52.832,47.564,53.261z
		 M48.464,50.523c-0.032-0.094,0.002-0.21,0.006-0.314c0.094,0.025,0.213,0.025,0.281,0.085c0.181,0.163,0.352,0.339,0.505,0.528
		c0.053,0.065,0.04,0.183,0.062,0.299C48.881,51.042,48.587,50.885,48.464,50.523z M49.68,50.628
		c-0.67-0.429-1.144-1.021-1.476-1.74c-0.215-0.464-0.403-0.926-0.438-1.448c-0.019-0.287-0.133-0.567-0.17-0.854
		c-0.023-0.188,0.025-0.369,0.288-0.38c0.086-0.003,0.173-0.067,0.259-0.106c-0.013-0.042-0.026-0.083-0.038-0.125
		c0.111,0.133,0.259,0.246,0.328,0.397c0.312,0.675,0.601,1.359,0.896,2.042c0.015,0.033,0.03,0.084,0.017,0.111
		c-0.169,0.354-0.016,0.658,0.144,0.962c0.133,0.255,0.385,0.476,0.199,0.821c-0.034,0.066,0.045,0.192,0.07,0.289
		C49.713,50.613,49.688,50.633,49.68,50.628z M49.091,46.43c0.032-0.023,0.063-0.05,0.094-0.074c0.123,0.149,0.246,0.297,0.37,0.445
		c-0.042,0.032-0.083,0.064-0.125,0.093C49.317,46.739,49.205,46.585,49.091,46.43z M52.6,51.753
		c-0.026,0.003-0.052,0.005-0.079,0.009c-0.028-0.052-0.069-0.104-0.081-0.159c-0.058-0.273-0.107-0.547-0.163-0.823
		c-0.007-0.036-0.025-0.074-0.045-0.107c-0.258-0.42-0.519-0.837-0.774-1.26c-0.035-0.058-0.055-0.126-0.068-0.19
		c-0.056-0.279-0.181-0.509-0.352-0.749c-0.222-0.315-0.285-0.737-0.438-1.107c-0.11-0.266-0.245-0.521-0.384-0.772
		c-0.102-0.183-0.256-0.339-0.335-0.529c-0.233-0.56-0.415-1.141-0.67-1.69c-0.149-0.324-0.401-0.6-0.606-0.897
		c-0.049-0.071-0.136-0.145-0.138-0.22c-0.023-0.691-0.559-1.128-0.844-1.685c-0.153-0.3-0.4-0.546-0.602-0.82
		c-0.039-0.054-0.06-0.117-0.089-0.181c0.02-0.019,0.04-0.038,0.06-0.058c0.126,0.113,0.25,0.233,0.381,0.34
		c0.417,0.343,0.873,0.646,1.244,1.03c0.263,0.274,0.43,0.648,0.61,0.997c0.198,0.379,0.369,0.776,0.538,1.171
		c0.438,1.026,0.883,2.05,1.3,3.083c0.428,1.064,0.83,2.136,1.238,3.21c0.122,0.318,0.247,0.639,0.335,0.97
		C52.671,51.446,52.614,51.605,52.6,51.753z M53.078,53.743c-0.05-0.421-0.098-0.841-0.147-1.262
		c0.045-0.008,0.089-0.014,0.133-0.021C53.177,52.874,53.439,53.271,53.078,53.743z M53.847,55.188c0-0.134,0.02-0.271-0.007-0.398
		c-0.023-0.109-0.096-0.213-0.152-0.312c-0.037-0.063-0.112-0.12-0.121-0.188c-0.035-0.256-0.051-0.518-0.035-0.784
		c0.206,0.546,0.438,1.083,0.447,1.67C53.934,55.182,53.89,55.185,53.847,55.188z M55.789,52.66c-0.109,0-0.268,0-0.423,0
		c-0.322-0.847-0.637-1.693-0.967-2.535c-0.327-0.828-0.042-1.649-0.388-2.499c0.383-0.082,0.443,0.263,0.722,0.366
		c-0.5-1.33-1.396-2.38-1.979-3.615c0.513,0.267,1.2,0.232,1.409,0.991c0.144,0.524,0.389,1.029,0.64,1.516
		c0.123,0.239-0.267,0.418-0.075,0.62c0.06,0.062,0.131,0.114,0.205,0.159c0.077,0.047,0.165,0.077,0.248,0.114
		c0.03-0.088,0.093-0.174,0.085-0.257c-0.047-0.497-0.193-0.961-0.499-1.364c-0.224-0.295-0.086-0.592-0.129-0.881
		c0.061,0.138,0.118,0.273,0.158,0.416c0.081,0.284,0.108,0.576,0.366,0.774c0.038,0.029,0.071,0.075,0.084,0.119
		c0.093,0.306,0.229,0.609,0.257,0.926c0.045,0.491,0.015,0.992,0.02,1.49c0.001,0.09,0.02,0.179,0.031,0.268
		c0.03,0.005,0.06,0.012,0.09,0.017c0.083-0.199,0.165-0.398,0.247-0.601c0.02,0.001,0.042,0.001,0.062,0.001
		c-0.018,0.242-0.043,0.485-0.051,0.724c-0.003,0.124,0.015,0.249,0.042,0.369C56.012,50.072,55.905,52.479,55.789,52.66z
		 M55.246,41.436c-0.224-0.31-0.412-0.644-0.667-0.918c0.47,0.435,0.941,0.87,1.445,1.336C55.57,41.972,55.416,41.671,55.246,41.436
		z M63.969,51.943c0.167,0.147,0.323,0.317,0.45,0.502c0.479,0.702,0.944,1.416,1.411,2.125c0.028,0.045,0.025,0.105,0.052,0.225
		c-0.149-0.075-0.234-0.118-0.336-0.167c-0.114,0.237-0.244,0.223-0.429,0.062c-0.231-0.201-0.484-0.353-0.364-0.737
		c0.029-0.099-0.082-0.269-0.17-0.369c-0.208-0.233-0.459-0.405-0.489-0.782c-0.018-0.227-0.251-0.432-0.372-0.653
		c-0.043-0.078-0.044-0.184-0.064-0.275C63.763,51.894,63.899,51.88,63.969,51.943z M61.72,54.592
		c-0.141,0.117-0.23,0.145-0.363-0.005c-0.37-0.411-0.776-0.795-1.117-1.227c-0.232-0.293-0.38-0.654-0.583-1.017
		c0.105,0.013,0.178,0.022,0.356,0.043c-0.488-0.905-0.943-1.751-1.398-2.594c0.012-0.009,0.023-0.018,0.037-0.025
		c0.163,0.22,0.333,0.436,0.491,0.658c0.43,0.606,0.862,1.215,1.28,1.829c0.191,0.282,0.339,0.59,0.528,0.873
		c0.255,0.38,0.527,0.749,0.798,1.12C61.847,54.378,61.868,54.471,61.72,54.592z M60.72,47.404c0.663,0.248,1.327,0.495,1.99,0.742
		c-0.013,0.036-0.026,0.068-0.04,0.104c-0.671-0.234-1.344-0.466-2.016-0.698C60.676,47.504,60.698,47.455,60.72,47.404z
		 M60.444,49.584c0.098,0.082,0.199,0.157,0.293,0.242c0.112,0.1,0.248,0.168,0.208,0.381c-0.019,0.096,0.133,0.219,0.2,0.335
		c0.192,0.337,0.372,0.681,0.578,1.01c0.155,0.246,0.336,0.479,0.518,0.709c0.13,0.164,0.239,0.309-0.042,0.444
		c0.342,0.559,0.671,1.096,1.02,1.663c-0.375,0.185-0.541-0.158-0.854-0.302c0.013,0.163,0.021,0.277,0.033,0.427
		c-0.323-0.189-0.524-0.476-0.703-0.767c-0.559-0.907-1.089-1.833-1.652-2.739c-0.388-0.624-0.812-1.223-1.214-1.837
		c-0.327-0.499-0.655-0.999-0.962-1.509c-0.168-0.279-0.294-0.584-0.463-0.926C58.013,46.688,60.184,49.372,60.444,49.584z
		 M57.468,40.878c-0.143-0.116-0.286-0.232-0.429-0.35c0.026-0.032,0.051-0.062,0.077-0.097c0.147,0.11,0.295,0.22,0.443,0.33
		C57.529,40.801,57.499,40.841,57.468,40.878z M69.413,37.57c-0.37-0.168-0.758-0.304-1.102-0.515
		c-0.329-0.205-0.801-0.14-1.071-0.531C67.618,36.419,68.915,37.02,69.413,37.57z M66.096,35.971
		c-0.125,0.053-0.239,0.131-0.358,0.198c0.106,0.043,0.212,0.087,0.315,0.131c0.079,0.033,0.156,0.072,0.226,0.171
		c-0.087-0.007-0.177-0.029-0.263-0.018c-0.215,0.028-0.426,0.09-0.643,0.104c-0.316,0.022-0.64,0.048-0.952,0.009
		c-0.163-0.021-0.116-0.203,0-0.264c0.395-0.209,0.795-0.409,1.204-0.586c0.259-0.112,0.536-0.185,0.809-0.261
		c0.495-0.137,0.992-0.261,1.488-0.392c0.014,0.039,0.027,0.076,0.039,0.113c-0.056,0.038-0.11,0.074-0.189,0.127
		c0.066,0.054,0.121,0.097,0.181,0.146c-0.026,0.03-0.038,0.06-0.061,0.07c-0.477,0.226-0.937,0.518-1.508,0.399
		C66.293,35.899,66.185,35.935,66.096,35.971z"/>
</g>
<path fill="#FFFFFF" d="M64.114,38.552c0.099,0.016-0.173-0.108-0.248-0.209c-0.075-0.097-0.149-0.198-0.248-0.228
	c-0.198-0.059,1.638,0.219,1.638,0.219l-1.242-0.006C64.015,38.328,63.95,38.523,64.114,38.552z"/>
<path fill="#FFFFFF" d="M10.536,41.339c-0.082-0.199,0.124-0.226,0.124-0.226l0.078,0.226H10.536z"/>
</svg>
